<svg width="426" height="273" viewBox="0 0 426 273" fill="none" xmlns="http://www.w3.org/2000/svg">
<rect width="426" height="272.515" rx="29.2161" fill="#FFECD5"/>
<g filter="url(#filter0_d_278_1512)">
<rect x="43.8516" y="25.0586" width="335.162" height="53.25" rx="26.625" fill="#FFF8F0"/>
</g>
<g filter="url(#filter1_d_278_1512)">
<circle cx="72.0437" cy="128.426" r="21.9265" fill="url(#paint0_linear_278_1512)"/>
</g>
<g filter="url(#filter2_d_278_1512)">
<circle cx="72.0437" cy="194.206" r="21.9265" fill="url(#paint1_linear_278_1512)"/>
</g>
<g filter="url(#filter3_d_278_1512)">
<circle cx="137.825" cy="128.426" r="21.9265" fill="url(#paint2_linear_278_1512)"/>
</g>
<g filter="url(#filter4_d_278_1512)">
<circle cx="137.825" cy="194.206" r="21.9265" fill="url(#paint3_linear_278_1512)"/>
</g>
<g filter="url(#filter5_d_278_1512)">
<circle cx="203.606" cy="128.426" r="21.9265" fill="url(#paint4_linear_278_1512)"/>
</g>
<g filter="url(#filter6_d_278_1512)">
<circle cx="266.247" cy="128.426" r="21.9265" fill="url(#paint5_linear_278_1512)"/>
</g>
<g filter="url(#filter7_d_278_1512)">
<circle cx="266.247" cy="194.206" r="21.9265" fill="url(#paint6_linear_278_1512)"/>
</g>
<g filter="url(#filter8_d_278_1512)">
<circle cx="203.606" cy="194.206" r="21.9265" fill="url(#paint7_linear_278_1512)"/>
</g>
<g filter="url(#filter9_d_278_1512)">
<rect x="319.5" y="106.5" width="59.5147" height="109.632" rx="12.5294" fill="url(#paint8_linear_278_1512)"/>
</g>
<path d="M202.369 60.1306H213.257V64.3687H195.754V61.0954L203.954 52.0335C205.493 50.3107 206.561 48.9095 207.159 47.8299C207.756 46.7503 208.054 45.7166 208.054 44.7288C208.054 43.6492 207.698 42.7763 206.986 42.1102C206.274 41.444 205.355 41.111 204.23 41.111C203.15 41.111 202.185 41.4555 201.335 42.1447C200.509 42.8108 199.865 43.7756 199.406 45.0389L195.409 43.2817C196.075 41.3062 197.189 39.7557 198.751 38.6302C200.313 37.5046 202.174 36.9303 204.333 36.9074C205.964 36.9074 207.411 37.2289 208.675 37.8721C209.938 38.5153 210.926 39.4226 211.638 40.5941C212.35 41.7427 212.706 43.075 212.706 44.591C212.706 46.0611 212.315 47.5542 211.534 49.0703C210.753 50.5634 209.479 52.2862 207.71 54.2387L202.369 60.1306ZM225.004 64.8511C221.972 64.8511 219.629 63.6451 217.975 61.2332C216.321 58.8213 215.494 55.3757 215.494 50.8964C215.494 46.4172 216.321 42.9716 217.975 40.5597C219.629 38.1248 221.972 36.9074 225.004 36.9074C228.036 36.9074 230.379 38.1248 232.033 40.5597C233.687 42.9716 234.514 46.4172 234.514 50.8964C234.514 55.3757 233.687 58.8213 232.033 61.2332C230.379 63.6451 228.036 64.8511 225.004 64.8511ZM225.004 60.613C226.543 60.613 227.737 59.7746 228.587 58.0977C229.437 56.3979 229.862 53.9975 229.862 50.8964C229.862 47.7724 229.437 45.372 228.587 43.6952C227.737 41.9953 226.543 41.1454 225.004 41.1454C223.465 41.1454 222.27 41.9953 221.42 43.6952C220.57 45.372 220.145 47.7724 220.145 50.8964C220.145 53.9975 220.57 56.3979 221.42 58.0977C222.27 59.7746 223.465 60.613 225.004 60.613ZM246.925 64.8511C243.893 64.8511 241.55 63.6451 239.896 61.2332C238.242 58.8213 237.415 55.3757 237.415 50.8964C237.415 46.4172 238.242 42.9716 239.896 40.5597C241.55 38.1248 243.893 36.9074 246.925 36.9074C249.957 36.9074 252.3 38.1248 253.954 40.5597C255.608 42.9716 256.434 46.4172 256.434 50.8964C256.434 55.3757 255.608 58.8213 253.954 61.2332C252.3 63.6451 249.957 64.8511 246.925 64.8511ZM246.925 60.613C248.464 60.613 249.658 59.7746 250.508 58.0977C251.358 56.3979 251.783 53.9975 251.783 50.8964C251.783 47.7724 251.358 45.372 250.508 43.6952C249.658 41.9953 248.464 41.1454 246.925 41.1454C245.386 41.1454 244.191 41.9953 243.341 43.6952C242.491 45.372 242.066 47.7724 242.066 50.8964C242.066 53.9975 242.491 56.3979 243.341 58.0977C244.191 59.7746 245.386 60.613 246.925 60.613ZM268.846 64.8511C265.813 64.8511 263.47 63.6451 261.817 61.2332C260.163 58.8213 259.336 55.3757 259.336 50.8964C259.336 46.4172 260.163 42.9716 261.817 40.5597C263.47 38.1248 265.813 36.9074 268.846 36.9074C271.878 36.9074 274.221 38.1248 275.875 40.5597C277.528 42.9716 278.355 46.4172 278.355 50.8964C278.355 55.3757 277.528 58.8213 275.875 61.2332C274.221 63.6451 271.878 64.8511 268.846 64.8511ZM268.846 60.613C270.385 60.613 271.579 59.7746 272.429 58.0977C273.279 56.3979 273.704 53.9975 273.704 50.8964C273.704 47.7724 273.279 45.372 272.429 43.6952C271.579 41.9953 270.385 41.1454 268.846 41.1454C267.307 41.1454 266.112 41.9953 265.262 43.6952C264.412 45.372 263.987 47.7724 263.987 50.8964C263.987 53.9975 264.412 56.3979 265.262 58.0977C266.112 59.7746 267.307 60.613 268.846 60.613ZM302.047 64.8511C299.749 64.8511 297.717 64.3113 295.948 63.2317C294.179 62.152 292.812 60.6704 291.848 58.7868L295.776 56.7884C296.396 58.0748 297.246 59.0395 298.325 59.6827C299.405 60.3259 300.657 60.6475 302.081 60.6475C303.597 60.6475 304.826 60.3259 305.768 59.6827C306.71 59.0165 307.18 58.1666 307.18 57.133C307.18 56.4209 306.997 55.8236 306.629 55.3413C306.262 54.8359 305.664 54.3995 304.837 54.0319C304.011 53.6414 302.851 53.228 301.357 52.7915C299.566 52.2862 298.084 51.7808 296.913 51.2755C295.764 50.7471 294.765 49.9661 293.915 48.9325C293.088 47.8988 292.675 46.5205 292.675 44.7978C292.675 43.2817 293.088 41.9264 293.915 40.732C294.742 39.5375 295.879 38.6072 297.326 37.941C298.796 37.2519 300.45 36.9074 302.288 36.9074C306.629 36.9074 309.788 38.7795 311.763 42.5237L307.973 44.6255C306.618 42.2825 304.7 41.111 302.219 41.111C300.841 41.111 299.669 41.444 298.704 42.1102C297.763 42.7763 297.292 43.5803 297.292 44.5221C297.292 45.349 297.51 46.0152 297.946 46.5205C298.406 47.0259 299.037 47.4509 299.841 47.7954C300.645 48.117 301.759 48.473 303.184 48.8635C304.929 49.3459 306.388 49.8628 307.559 50.4141C308.754 50.9424 309.765 51.7349 310.592 52.7915C311.419 53.8482 311.832 55.2149 311.832 56.8918C311.832 58.4997 311.419 59.9009 310.592 61.0954C309.788 62.2899 308.639 63.2202 307.146 63.8863C305.676 64.5295 303.976 64.8511 302.047 64.8511ZM331.663 53.1361C331.663 54.2846 331.548 55.3068 331.319 56.2027H318.398C318.582 57.7417 319.098 58.9476 319.948 59.8205C320.798 60.6704 321.935 61.0954 323.359 61.0954C324.255 61.0954 325.071 60.8657 325.806 60.4063C326.564 59.9239 327.184 59.2463 327.666 58.3734L331.215 60.1995C330.48 61.6697 329.447 62.8182 328.114 63.6451C326.782 64.4491 325.197 64.8511 323.359 64.8511C321.43 64.8511 319.742 64.4491 318.294 63.6451C316.87 62.8182 315.768 61.6467 314.987 60.1306C314.229 58.5916 313.85 56.7999 313.85 54.7555C313.85 52.6652 314.217 50.8505 314.952 49.3115C315.71 47.7495 316.778 46.555 318.157 45.7281C319.535 44.8782 321.154 44.4532 323.015 44.4532C324.761 44.4532 326.288 44.8092 327.597 45.5213C328.907 46.2334 329.906 47.2441 330.595 48.5534C331.307 49.8628 331.663 51.3903 331.663 53.1361ZM327.184 52.4814C327.184 51.1721 326.805 50.1269 326.047 49.3459C325.289 48.5649 324.278 48.1744 323.015 48.1744C321.82 48.1744 320.844 48.5534 320.086 49.3115C319.328 50.0465 318.811 51.1032 318.536 52.4814H327.184ZM351.464 53.1361C351.464 54.2846 351.35 55.3068 351.12 56.2027H338.199C338.383 57.7417 338.899 58.9476 339.749 59.8205C340.599 60.6704 341.736 61.0954 343.16 61.0954C344.056 61.0954 344.872 60.8657 345.607 60.4063C346.365 59.9239 346.985 59.2463 347.467 58.3734L351.016 60.1995C350.281 61.6697 349.248 62.8182 347.915 63.6451C346.583 64.4491 344.998 64.8511 343.16 64.8511C341.231 64.8511 339.543 64.4491 338.095 63.6451C336.671 62.8182 335.569 61.6467 334.788 60.1306C334.03 58.5916 333.651 56.7999 333.651 54.7555C333.651 52.6652 334.018 50.8505 334.753 49.3115C335.511 47.7495 336.579 46.555 337.958 45.7281C339.336 44.8782 340.955 44.4532 342.816 44.4532C344.562 44.4532 346.089 44.8092 347.399 45.5213C348.708 46.2334 349.707 47.2441 350.396 48.5534C351.108 49.8628 351.464 51.3903 351.464 53.1361ZM346.985 52.4814C346.985 51.1721 346.606 50.1269 345.848 49.3459C345.09 48.5649 344.079 48.1744 342.816 48.1744C341.621 48.1744 340.645 48.5534 339.887 49.3115C339.129 50.0465 338.612 51.1032 338.337 52.4814H346.985Z" fill="url(#paint9_linear_278_1512)"/>
<defs>
<filter id="filter0_d_278_1512" x="43.8516" y="25.0586" width="335.164" height="56.3824" filterUnits="userSpaceOnUse" color-interpolation-filters="sRGB">
<feFlood flood-opacity="0" result="BackgroundImageFix"/>
<feColorMatrix in="SourceAlpha" type="matrix" values="0 0 0 0 0 0 0 0 0 0 0 0 0 0 0 0 0 0 127 0" result="hardAlpha"/>
<feOffset dy="3.13235"/>
<feComposite in2="hardAlpha" operator="out"/>
<feColorMatrix type="matrix" values="0 0 0 0 0.941176 0 0 0 0 0.819608 0 0 0 0 0.670588 0 0 0 1 0"/>
<feBlend mode="normal" in2="BackgroundImageFix" result="effect1_dropShadow_278_1512"/>
<feBlend mode="normal" in="SourceGraphic" in2="effect1_dropShadow_278_1512" result="shape"/>
</filter>
<filter id="filter1_d_278_1512" x="50.1172" y="106.5" width="43.8516" height="46.9854" filterUnits="userSpaceOnUse" color-interpolation-filters="sRGB">
<feFlood flood-opacity="0" result="BackgroundImageFix"/>
<feColorMatrix in="SourceAlpha" type="matrix" values="0 0 0 0 0 0 0 0 0 0 0 0 0 0 0 0 0 0 127 0" result="hardAlpha"/>
<feOffset dy="3.13235"/>
<feComposite in2="hardAlpha" operator="out"/>
<feColorMatrix type="matrix" values="0 0 0 0 0.999691 0 0 0 0 0.790145 0 0 0 0 0.533282 0 0 0 1 0"/>
<feBlend mode="normal" in2="BackgroundImageFix" result="effect1_dropShadow_278_1512"/>
<feBlend mode="normal" in="SourceGraphic" in2="effect1_dropShadow_278_1512" result="shape"/>
</filter>
<filter id="filter2_d_278_1512" x="50.1172" y="172.279" width="43.8516" height="46.9854" filterUnits="userSpaceOnUse" color-interpolation-filters="sRGB">
<feFlood flood-opacity="0" result="BackgroundImageFix"/>
<feColorMatrix in="SourceAlpha" type="matrix" values="0 0 0 0 0 0 0 0 0 0 0 0 0 0 0 0 0 0 127 0" result="hardAlpha"/>
<feOffset dy="3.13235"/>
<feComposite in2="hardAlpha" operator="out"/>
<feColorMatrix type="matrix" values="0 0 0 0 0.999691 0 0 0 0 0.790145 0 0 0 0 0.533282 0 0 0 1 0"/>
<feBlend mode="normal" in2="BackgroundImageFix" result="effect1_dropShadow_278_1512"/>
<feBlend mode="normal" in="SourceGraphic" in2="effect1_dropShadow_278_1512" result="shape"/>
</filter>
<filter id="filter3_d_278_1512" x="115.898" y="106.5" width="43.8516" height="46.9854" filterUnits="userSpaceOnUse" color-interpolation-filters="sRGB">
<feFlood flood-opacity="0" result="BackgroundImageFix"/>
<feColorMatrix in="SourceAlpha" type="matrix" values="0 0 0 0 0 0 0 0 0 0 0 0 0 0 0 0 0 0 127 0" result="hardAlpha"/>
<feOffset dy="3.13235"/>
<feComposite in2="hardAlpha" operator="out"/>
<feColorMatrix type="matrix" values="0 0 0 0 0.999691 0 0 0 0 0.790145 0 0 0 0 0.533282 0 0 0 1 0"/>
<feBlend mode="normal" in2="BackgroundImageFix" result="effect1_dropShadow_278_1512"/>
<feBlend mode="normal" in="SourceGraphic" in2="effect1_dropShadow_278_1512" result="shape"/>
</filter>
<filter id="filter4_d_278_1512" x="115.898" y="172.279" width="43.8516" height="46.9854" filterUnits="userSpaceOnUse" color-interpolation-filters="sRGB">
<feFlood flood-opacity="0" result="BackgroundImageFix"/>
<feColorMatrix in="SourceAlpha" type="matrix" values="0 0 0 0 0 0 0 0 0 0 0 0 0 0 0 0 0 0 127 0" result="hardAlpha"/>
<feOffset dy="3.13235"/>
<feComposite in2="hardAlpha" operator="out"/>
<feColorMatrix type="matrix" values="0 0 0 0 0.999691 0 0 0 0 0.790145 0 0 0 0 0.533282 0 0 0 1 0"/>
<feBlend mode="normal" in2="BackgroundImageFix" result="effect1_dropShadow_278_1512"/>
<feBlend mode="normal" in="SourceGraphic" in2="effect1_dropShadow_278_1512" result="shape"/>
</filter>
<filter id="filter5_d_278_1512" x="181.68" y="106.5" width="43.8516" height="46.9854" filterUnits="userSpaceOnUse" color-interpolation-filters="sRGB">
<feFlood flood-opacity="0" result="BackgroundImageFix"/>
<feColorMatrix in="SourceAlpha" type="matrix" values="0 0 0 0 0 0 0 0 0 0 0 0 0 0 0 0 0 0 127 0" result="hardAlpha"/>
<feOffset dy="3.13235"/>
<feComposite in2="hardAlpha" operator="out"/>
<feColorMatrix type="matrix" values="0 0 0 0 0.999691 0 0 0 0 0.790145 0 0 0 0 0.533282 0 0 0 1 0"/>
<feBlend mode="normal" in2="BackgroundImageFix" result="effect1_dropShadow_278_1512"/>
<feBlend mode="normal" in="SourceGraphic" in2="effect1_dropShadow_278_1512" result="shape"/>
</filter>
<filter id="filter6_d_278_1512" x="244.32" y="106.5" width="43.8516" height="46.9854" filterUnits="userSpaceOnUse" color-interpolation-filters="sRGB">
<feFlood flood-opacity="0" result="BackgroundImageFix"/>
<feColorMatrix in="SourceAlpha" type="matrix" values="0 0 0 0 0 0 0 0 0 0 0 0 0 0 0 0 0 0 127 0" result="hardAlpha"/>
<feOffset dy="3.13235"/>
<feComposite in2="hardAlpha" operator="out"/>
<feColorMatrix type="matrix" values="0 0 0 0 0.999691 0 0 0 0 0.790145 0 0 0 0 0.533282 0 0 0 1 0"/>
<feBlend mode="normal" in2="BackgroundImageFix" result="effect1_dropShadow_278_1512"/>
<feBlend mode="normal" in="SourceGraphic" in2="effect1_dropShadow_278_1512" result="shape"/>
</filter>
<filter id="filter7_d_278_1512" x="244.32" y="172.279" width="43.8516" height="46.9854" filterUnits="userSpaceOnUse" color-interpolation-filters="sRGB">
<feFlood flood-opacity="0" result="BackgroundImageFix"/>
<feColorMatrix in="SourceAlpha" type="matrix" values="0 0 0 0 0 0 0 0 0 0 0 0 0 0 0 0 0 0 127 0" result="hardAlpha"/>
<feOffset dy="3.13235"/>
<feComposite in2="hardAlpha" operator="out"/>
<feColorMatrix type="matrix" values="0 0 0 0 0.999691 0 0 0 0 0.790145 0 0 0 0 0.533282 0 0 0 1 0"/>
<feBlend mode="normal" in2="BackgroundImageFix" result="effect1_dropShadow_278_1512"/>
<feBlend mode="normal" in="SourceGraphic" in2="effect1_dropShadow_278_1512" result="shape"/>
</filter>
<filter id="filter8_d_278_1512" x="181.68" y="172.279" width="43.8516" height="46.9854" filterUnits="userSpaceOnUse" color-interpolation-filters="sRGB">
<feFlood flood-opacity="0" result="BackgroundImageFix"/>
<feColorMatrix in="SourceAlpha" type="matrix" values="0 0 0 0 0 0 0 0 0 0 0 0 0 0 0 0 0 0 127 0" result="hardAlpha"/>
<feOffset dy="3.13235"/>
<feComposite in2="hardAlpha" operator="out"/>
<feColorMatrix type="matrix" values="0 0 0 0 0.999691 0 0 0 0 0.790145 0 0 0 0 0.533282 0 0 0 1 0"/>
<feBlend mode="normal" in2="BackgroundImageFix" result="effect1_dropShadow_278_1512"/>
<feBlend mode="normal" in="SourceGraphic" in2="effect1_dropShadow_278_1512" result="shape"/>
</filter>
<filter id="filter9_d_278_1512" x="319.5" y="106.5" width="59.5156" height="112.765" filterUnits="userSpaceOnUse" color-interpolation-filters="sRGB">
<feFlood flood-opacity="0" result="BackgroundImageFix"/>
<feColorMatrix in="SourceAlpha" type="matrix" values="0 0 0 0 0 0 0 0 0 0 0 0 0 0 0 0 0 0 127 0" result="hardAlpha"/>
<feOffset dy="3.13235"/>
<feComposite in2="hardAlpha" operator="out"/>
<feColorMatrix type="matrix" values="0 0 0 0 0.999691 0 0 0 0 0.790145 0 0 0 0 0.533282 0 0 0 1 0"/>
<feBlend mode="normal" in2="BackgroundImageFix" result="effect1_dropShadow_278_1512"/>
<feBlend mode="normal" in="SourceGraphic" in2="effect1_dropShadow_278_1512" result="shape"/>
</filter>
<linearGradient id="paint0_linear_278_1512" x1="50.1172" y1="90.8382" x2="72.0437" y2="150.353" gradientUnits="userSpaceOnUse">
<stop stop-color="#FFEFDD"/>
<stop offset="1" stop-color="#FDD7A9"/>
</linearGradient>
<linearGradient id="paint1_linear_278_1512" x1="50.1172" y1="156.618" x2="72.0437" y2="216.132" gradientUnits="userSpaceOnUse">
<stop stop-color="#FFEFDD"/>
<stop offset="1" stop-color="#FDD7A9"/>
</linearGradient>
<linearGradient id="paint2_linear_278_1512" x1="115.898" y1="90.8382" x2="137.825" y2="150.353" gradientUnits="userSpaceOnUse">
<stop stop-color="#FFEFDD"/>
<stop offset="1" stop-color="#FDD7A9"/>
</linearGradient>
<linearGradient id="paint3_linear_278_1512" x1="115.898" y1="156.618" x2="137.825" y2="216.132" gradientUnits="userSpaceOnUse">
<stop stop-color="#FFEFDD"/>
<stop offset="1" stop-color="#FDD7A9"/>
</linearGradient>
<linearGradient id="paint4_linear_278_1512" x1="181.68" y1="90.8382" x2="203.606" y2="150.353" gradientUnits="userSpaceOnUse">
<stop stop-color="#FFEFDD"/>
<stop offset="1" stop-color="#FDD7A9"/>
</linearGradient>
<linearGradient id="paint5_linear_278_1512" x1="244.32" y1="90.8382" x2="266.247" y2="150.353" gradientUnits="userSpaceOnUse">
<stop stop-color="#FFEFDD"/>
<stop offset="1" stop-color="#FDD7A9"/>
</linearGradient>
<linearGradient id="paint6_linear_278_1512" x1="244.32" y1="156.618" x2="266.247" y2="216.132" gradientUnits="userSpaceOnUse">
<stop stop-color="#FFEFDD"/>
<stop offset="1" stop-color="#FDD7A9"/>
</linearGradient>
<linearGradient id="paint7_linear_278_1512" x1="181.68" y1="156.618" x2="203.606" y2="216.132" gradientUnits="userSpaceOnUse">
<stop stop-color="#FFEFDD"/>
<stop offset="1" stop-color="#FDD7A9"/>
</linearGradient>
<linearGradient id="paint8_linear_278_1512" x1="319.5" y1="67.3456" x2="398.018" y2="183.04" gradientUnits="userSpaceOnUse">
<stop stop-color="#FFEFDD"/>
<stop offset="1" stop-color="#FDD7A9"/>
</linearGradient>
<linearGradient id="paint9_linear_278_1512" x1="273.703" y1="25.0586" x2="273.703" y2="77.0586" gradientUnits="userSpaceOnUse">
<stop stop-color="#FFD9AD"/>
<stop offset="1" stop-color="#FEEEDA"/>
</linearGradient>
</defs>
</svg>
