<svg width="51" height="48" viewBox="0 0 51 48" fill="none" xmlns="http://www.w3.org/2000/svg">
<rect y="1.33301" width="36" height="22.6667" fill="#726DF9"/>
<rect y="24" width="50.6667" height="24" fill="#726DF9"/>
<path d="M2.24794 10.304H16.4079V12.496H2.24794V10.304ZM27.7039 13.376C28.0773 14.2613 28.6213 15.0133 29.3359 15.632C30.0613 16.2507 31.0106 16.8 32.1839 17.28L31.2079 19.232C29.0853 18.2613 27.5386 16.9013 26.5679 15.152C26.2053 15.9093 25.6986 16.624 25.0479 17.296C24.4079 17.968 23.5973 18.6293 22.6159 19.28L21.3359 17.52C22.4773 16.912 23.3626 16.2827 23.9919 15.632C24.6213 14.9813 25.0479 14.2293 25.2719 13.376H22.3439V11.504H25.4799V8.416H23.0159V6.544H25.4959V4.352H27.3999V6.544H30.9519V11.504H32.0879V13.376H27.7039ZM22.5999 14.944L22.7439 16C22.3599 16.1173 21.6079 16.3733 20.4879 16.768C19.3679 17.152 18.5786 17.4347 18.1199 17.616L17.7039 15.616C17.9066 15.5733 18.4826 15.4027 19.4319 15.104V10.08H17.8799V8.208H19.4319V4.448H21.2399V8.208H22.6319V10.08H21.2399V14.496C21.8266 14.304 22.2373 14.1547 22.4719 14.048L22.5999 14.944ZM27.3679 11.504H29.1279V8.416H27.3839L27.3679 11.424V11.504ZM11.7679 30.144H16.4879V32.144H5.83194V34.4C5.83194 35.8827 5.78394 37.088 5.68794 38.016C5.6026 38.9333 5.43194 39.792 5.17594 40.592C4.9306 41.392 4.5466 42.2667 4.02394 43.216L2.11994 41.888C2.58927 41.0987 2.93594 40.3787 3.15994 39.728C3.38394 39.0773 3.52794 38.3787 3.59194 37.632C3.6666 36.8853 3.70394 35.8773 3.70394 34.608V30.144H9.15994L8.53594 28.528L10.9999 28.224L11.7679 30.144ZM26.3439 33.824H32.0879V35.68H17.9439V33.824H24.2959V32.08H21.1119C20.8773 32.5813 20.6053 33.0827 20.2959 33.584L18.5039 32.8C18.9413 32.1173 19.3039 31.4507 19.5919 30.8C19.8799 30.1387 20.1093 29.4507 20.2799 28.736L22.2319 29.008C22.1359 29.3707 22.0133 29.776 21.8639 30.224H24.2959V28.352H26.3439V30.224H31.2559V32.08H26.3439V33.824ZM21.4799 43.248H19.5119V36.832H30.5519V43.248H28.5519V42.496H21.4799V43.248ZM28.5519 40.624V38.624H21.4799V40.624H28.5519ZM47.8319 38.896V40.608H45.0159V43.152H43.1439V40.608H38.8559V38.896H40.0079L39.4959 38.192C40.3493 37.68 40.9679 37.2427 41.3519 36.88H39.4319V29.616H41.9119C42.1039 29.1253 42.2373 28.7307 42.3119 28.432L44.2479 28.656C44.1626 28.9333 44.0453 29.2533 43.8959 29.616H47.2399V36.88H43.2719C42.8559 37.584 42.1999 38.256 41.3039 38.896H43.1439V37.408H45.0159V38.896H47.8319ZM35.9119 35.936V36.048H38.4719V43.024H36.9199V37.84H35.8799C35.8373 39.0133 35.7306 40.0053 35.5599 40.816C35.3999 41.6267 35.1546 42.4427 34.8239 43.264L33.3039 42.176C33.5599 41.472 33.7466 40.864 33.8639 40.352C33.9813 39.8293 34.0666 39.1947 34.1199 38.448C34.1733 37.6907 34.1999 36.656 34.1999 35.344V29.216H35.9119V33.008H36.8079V28.912H38.3119V33.008H38.9359V34.768H35.9119V35.936ZM42.5359 32.56V31.184H41.0799V32.56H42.5359ZM44.1359 32.56H45.6079V31.184H44.1359V32.56ZM41.0799 33.952V35.296H42.2959C42.4133 34.88 42.4879 34.432 42.5199 33.952H41.0799ZM45.6079 35.296V33.952H44.1039C44.0719 34.4213 44.0079 34.8693 43.9119 35.296H45.6079Z" fill="white"/>
</svg>
