<svg width="176" height="32" viewBox="0 0 176 32" fill="none" xmlns="http://www.w3.org/2000/svg">
<g clip-path="url(#clip0_278_3491)">
<path d="M154.777 16.1354C153.866 15.5729 152.874 15.1657 151.932 14.6614C151.319 14.3414 150.664 14.0505 150.132 13.6335C149.231 12.9354 149.415 11.5487 150.357 10.9475C151.718 10.0941 153.959 10.5693 154.204 12.3147C154.204 12.3535 154.245 12.3826 154.286 12.3826H156.332C156.384 12.3826 156.425 12.3438 156.404 12.2857C156.386 11.7366 156.243 11.1977 155.985 10.7057C155.728 10.2138 155.361 9.78024 154.91 9.43475C154.077 8.82611 153.056 8.49542 152.004 8.49414C146.601 8.49414 146.1 13.9147 149.016 15.6214C149.354 15.8154 152.209 17.1729 153.212 17.7644C154.235 18.356 154.542 19.442 154.112 20.2857C153.703 21.0711 152.679 21.6141 151.636 21.5463C150.51 21.4881 149.63 20.9063 149.323 20.0044C149.272 19.8396 149.241 19.5196 149.241 19.3935C149.239 19.3737 149.23 19.3552 149.215 19.341C149.2 19.3269 149.18 19.3181 149.159 19.316H146.939C146.908 19.316 146.867 19.3547 146.867 19.3935C146.867 20.9063 147.266 21.7499 148.351 22.516C149.374 23.2432 150.5 23.5535 151.646 23.5535C154.685 23.5535 156.251 21.9244 156.558 20.2469C156.844 18.5984 156.332 17.1147 154.777 16.1354ZM58.3864 8.77535H56.3195C56.3042 8.77713 56.2897 8.78249 56.2771 8.79096C56.2646 8.79943 56.2546 8.81073 56.2478 8.82384L54.4264 14.5063C54.4264 14.5268 54.4178 14.5466 54.4025 14.5611C54.3871 14.5757 54.3663 14.5838 54.3446 14.5838C54.3229 14.5838 54.302 14.5757 54.2867 14.5611C54.2713 14.5466 54.2627 14.5268 54.2627 14.5063L52.4413 8.82384C52.4311 8.78505 52.4004 8.77535 52.3595 8.77535H48.9725C48.9316 8.77535 48.8906 8.81414 48.8906 8.84323V23.3499C48.8906 23.3887 48.9316 23.4275 48.9725 23.4275H51.193C51.2339 23.4275 51.2748 23.3887 51.2748 23.3499V12.3147C51.2748 12.2275 51.4078 12.2178 51.4283 12.2954L53.2702 18.0166L53.4032 18.4044C53.4032 18.4529 53.4339 18.4626 53.4748 18.4626H55.1837C55.2246 18.4626 55.245 18.4335 55.2553 18.4141L55.3883 18.0069L57.2302 12.2857C57.2506 12.2081 57.3837 12.2275 57.3837 12.3147V23.3402C57.3837 23.379 57.4246 23.4178 57.4655 23.4178H59.686C59.7269 23.4178 59.7678 23.379 59.7678 23.3402V8.84323C59.7678 8.81414 59.7269 8.77535 59.686 8.77535H58.3864ZM120.785 8.77535C120.768 8.77546 120.751 8.78006 120.736 8.78862C120.722 8.79718 120.71 8.80937 120.703 8.82384L118.881 14.5063C118.881 14.5268 118.873 14.5466 118.857 14.5611C118.842 14.5757 118.821 14.5838 118.799 14.5838C118.778 14.5838 118.757 14.5757 118.742 14.5611C118.726 14.5466 118.718 14.5268 118.718 14.5063L116.896 8.82384C116.896 8.78505 116.866 8.77535 116.825 8.77535H113.448C113.407 8.77535 113.366 8.81414 113.366 8.84323V23.3499C113.366 23.3887 113.407 23.4275 113.448 23.4275H115.668C115.699 23.4275 115.74 23.3887 115.74 23.3499V12.3147C115.74 12.2275 115.873 12.2178 115.904 12.2954L117.746 18.0166L117.868 18.4044C117.889 18.4529 117.909 18.4626 117.95 18.4626H119.649C119.666 18.4616 119.682 18.4566 119.696 18.4481C119.71 18.4396 119.722 18.428 119.731 18.4141L119.864 18.0069L121.706 12.2857C121.726 12.2081 121.859 12.2275 121.859 12.3147V23.3402C121.859 23.379 121.9 23.4178 121.941 23.4178H124.161C124.202 23.4178 124.243 23.379 124.243 23.3402V8.84323C124.243 8.81414 124.202 8.77535 124.161 8.77535H120.785ZM92.1437 8.77535H81.6553C81.6246 8.77535 81.5837 8.81414 81.5837 8.84323V10.6663C81.5837 10.705 81.6246 10.7438 81.6553 10.7438H85.7176V23.3499C85.7176 23.3984 85.7585 23.4372 85.7892 23.4372H88.0097C88.0506 23.4372 88.0916 23.3984 88.0916 23.3596V10.7341H92.1437C92.1846 10.7341 92.2255 10.6954 92.2255 10.6566V8.84323C92.2255 8.81414 92.205 8.77535 92.1437 8.77535ZM105.241 23.4275H107.267C107.319 23.4275 107.359 23.3693 107.339 23.3305L103.164 8.77535C103.164 8.73656 103.133 8.71717 103.092 8.71717H100.176C100.16 8.71985 100.145 8.72667 100.132 8.73691C100.119 8.74715 100.11 8.76044 100.105 8.77535L95.9297 23.3208C95.9092 23.3693 95.9502 23.4178 96.0013 23.4178H98.0274C98.0683 23.4178 98.0888 23.3984 98.1092 23.3693L99.3167 19.1414C99.3269 19.1026 99.3576 19.0929 99.3985 19.0929H103.86C103.901 19.0929 103.932 19.1123 103.942 19.1414L105.149 23.3693C105.17 23.3984 105.211 23.4275 105.231 23.4275H105.241ZM99.9409 17.0178L101.558 11.345C101.558 11.3245 101.566 11.3047 101.582 11.2902C101.597 11.2756 101.618 11.2675 101.639 11.2675C101.661 11.2675 101.682 11.2756 101.697 11.2902C101.713 11.3047 101.721 11.3245 101.721 11.345L103.338 17.0178C103.359 17.0663 103.318 17.1147 103.266 17.1147H100.023C99.9613 17.1147 99.9204 17.0663 99.9409 17.0178ZM139.694 23.4275H141.72C141.772 23.4275 141.812 23.3693 141.802 23.3305L137.627 8.76566C137.607 8.72687 137.586 8.70747 137.546 8.70747H134.65C134.632 8.70841 134.614 8.71444 134.599 8.7248C134.585 8.73516 134.574 8.74937 134.568 8.76566L130.393 23.3111C130.383 23.3596 130.424 23.4081 130.475 23.4081H132.491C132.532 23.4081 132.562 23.3887 132.572 23.3596L133.78 19.1317C133.8 19.0929 133.821 19.0832 133.862 19.0832H138.333C138.364 19.0832 138.395 19.1026 138.405 19.1317L139.623 23.3596C139.623 23.3887 139.664 23.4178 139.694 23.4178V23.4275ZM134.394 17.0178L136.021 11.345C136.027 11.3302 136.037 11.3174 136.051 11.3084C136.065 11.2993 136.081 11.2945 136.098 11.2945C136.114 11.2945 136.131 11.2993 136.144 11.3084C136.158 11.3174 136.169 11.3302 136.174 11.345L137.801 17.0178C137.801 17.0663 137.771 17.1147 137.719 17.1147H134.476C134.425 17.1147 134.373 17.0663 134.394 17.0178ZM68.7827 21.2747V16.7754C68.7827 16.7366 68.8134 16.6978 68.8543 16.6978H74.7688C74.8097 16.6978 74.8506 16.659 74.8506 16.6299V14.8166C74.8484 14.7967 74.8391 14.7782 74.8242 14.7641C74.8093 14.7499 74.7897 14.7411 74.7688 14.739H68.8646C68.8237 14.739 68.793 14.7002 68.793 14.6614V10.8214C68.793 10.7826 68.8237 10.7438 68.8646 10.7438H75.5976C75.6385 10.7438 75.6795 10.705 75.6795 10.6663V8.86263C75.6772 8.84277 75.6679 8.82424 75.653 8.81012C75.6381 8.79601 75.6186 8.78716 75.5976 8.78505H66.4906C66.4697 8.78716 66.4501 8.79601 66.4352 8.81012C66.4203 8.82424 66.411 8.84277 66.4088 8.86263V23.3499C66.4088 23.3887 66.4497 23.4275 66.4906 23.4275H75.8739C75.9148 23.4275 75.9557 23.3887 75.9557 23.3499V21.4299C75.9535 21.41 75.9442 21.3915 75.9293 21.3774C75.9144 21.3633 75.8948 21.3544 75.8739 21.3523H68.8543C68.8134 21.3426 68.793 21.3135 68.793 21.265L68.7827 21.2747ZM175.058 23.3014L167.384 15.796C167.372 15.7822 167.366 15.7651 167.366 15.7475C167.366 15.7298 167.372 15.7127 167.384 15.699L174.291 8.91111C174.308 8.90339 174.322 8.88935 174.329 8.87208C174.335 8.8548 174.335 8.83571 174.326 8.81899C174.318 8.80227 174.303 8.78931 174.285 8.78294C174.267 8.77658 174.247 8.77733 174.229 8.78505H171.405C171.374 8.78505 171.364 8.79475 171.354 8.81414L165.491 14.5644C165.479 14.5732 165.466 14.5789 165.452 14.5811C165.437 14.5833 165.423 14.5819 165.409 14.577C165.396 14.572 165.384 14.5638 165.375 14.5531C165.366 14.5424 165.36 14.5295 165.358 14.516V8.86263C165.355 8.84277 165.346 8.82424 165.331 8.81012C165.316 8.79601 165.297 8.78716 165.276 8.78505H163.055C163.034 8.78716 163.015 8.79601 163 8.81012C162.985 8.82424 162.976 8.84277 162.973 8.86263V23.3596C162.973 23.3984 163.014 23.4372 163.055 23.4372H165.276C165.317 23.4372 165.358 23.3984 165.358 23.3596V16.979C165.358 16.9111 165.45 16.882 165.491 16.9305L172.142 23.4081C172.153 23.4209 172.167 23.4309 172.183 23.4372H175.017C175.068 23.4275 175.119 23.3402 175.058 23.3014Z" fill="#161616"/>
<path d="M33.7268 0.969727L20.2812 10.3952L22.7882 4.83882L33.7268 0.969727Z" fill="#E17726" stroke="#E17726" stroke-width="0.25" stroke-linecap="round" stroke-linejoin="round"/>
<path d="M2.7192 0.969727L16.042 10.4728L13.6578 4.84851L2.7192 0.969727ZM28.8839 22.817L25.3025 27.9952L32.9666 29.9928L35.1564 22.9334L28.8839 22.817ZM1.29688 22.9334L3.47641 29.9928L11.1201 27.9952L7.5592 22.817L1.29688 22.9334Z" fill="#E27625" stroke="#E27625" stroke-width="0.25" stroke-linecap="round" stroke-linejoin="round"/>
<path d="M10.7143 14.07L8.58594 17.1149L16.158 17.4446L15.9124 9.71611L10.7143 14.0797V14.07ZM25.7357 14.0797L20.4557 9.61914L20.2818 17.4446L27.8538 17.1149L25.7357 14.0797ZM11.1236 27.9949L15.718 25.9004L11.7683 22.9913L11.1236 27.9949ZM20.7422 25.8907L25.3059 27.9949L24.692 22.9816L20.7422 25.8907Z" fill="#E27625" stroke="#E27625" stroke-width="0.25" stroke-linecap="round" stroke-linejoin="round"/>
<path d="M25.3073 27.9949L20.7436 25.9004L21.112 28.7125L21.071 29.9052L25.3073 27.9949ZM11.125 27.9949L15.3817 29.9052L15.351 28.7125L15.7194 25.9004L11.125 27.9949Z" fill="#D5BFB2" stroke="#D5BFB2" stroke-width="0.25" stroke-linecap="round" stroke-linejoin="round"/>
<path d="M15.4501 21.12L11.6641 20.0727L14.345 18.9091L15.4603 21.12H15.4501ZM20.9859 21.12L22.1115 18.8994L24.8027 20.0631L20.9859 21.1297V21.12Z" fill="#233447" stroke="#233447" stroke-width="0.25" stroke-linecap="round" stroke-linejoin="round"/>
<path d="M11.1234 27.9952L11.7885 22.8171L7.5625 22.9334L11.1234 27.9952ZM24.6611 22.8171L25.3058 27.9952L28.8872 22.9334L24.6611 22.8171ZM27.8639 17.1152L20.2918 17.4449L20.9876 21.1298L22.1132 18.8995L24.8044 20.0631L27.8639 17.1152ZM11.6658 20.0728L14.3467 18.9092L15.462 21.1201L16.1681 17.4352L8.59599 17.1152L11.6658 20.0728Z" fill="#CC6228" stroke="#CC6228" stroke-width="0.25" stroke-linecap="round" stroke-linejoin="round"/>
<path d="M8.59375 17.1152L11.7658 22.9819L11.6635 20.0728L8.59375 17.1152ZM24.8021 20.0728L24.6793 22.9819L27.8514 17.1152L24.8021 20.0728ZM16.1658 17.4449L15.4496 21.1298L16.35 25.474L16.5547 19.7431L16.1658 17.4449ZM20.2793 17.4449L19.911 19.7334L20.0951 25.474L20.9854 21.1201L20.2793 17.4352V17.4449Z" fill="#E27525" stroke="#E27525" stroke-width="0.25" stroke-linecap="round" stroke-linejoin="round"/>
<path d="M20.9883 21.1195L20.0981 25.4735L20.7428 25.9001L24.6823 22.9911L24.8051 20.0723L20.9883 21.1195ZM11.6665 20.0723L11.7688 22.9814L15.7186 25.8904L16.353 25.4735L15.4628 21.1195L11.6562 20.0723H11.6665Z" fill="#F5841F" stroke="#F5841F" stroke-width="0.25" stroke-linecap="round" stroke-linejoin="round"/>
<path d="M21.0813 29.9054L21.112 28.7127L20.7641 28.4412H15.6887L15.351 28.7127L15.3817 29.9054L11.125 27.9951L12.619 29.1588L15.6376 31.1272H20.805L23.8338 29.1491L25.3073 27.9951L21.071 29.9054H21.0813Z" fill="#C0AC9D" stroke="#C0AC9D" stroke-width="0.25" stroke-linecap="round" stroke-linejoin="round"/>
<path d="M20.7441 25.8906L20.0995 25.4736H16.3544L15.7199 25.9003L15.3516 28.7124L15.6892 28.4409H20.7646L21.1125 28.7124L20.7441 25.9003V25.8906Z" fill="#161616" stroke="#161616" stroke-width="0.25" stroke-linecap="round" stroke-linejoin="round"/>
<path d="M34.2997 11.0061L35.4253 5.81821L33.7267 0.969727L20.7313 10.0849L25.7351 14.0703L32.7955 16.0194L34.3509 14.3031L33.6755 13.8376L34.75 12.9067L33.9313 12.3055L35.0058 11.5297L34.2895 11.0061H34.2997ZM1.02344 5.80851L2.16948 11.0061L1.43274 11.52L2.52762 12.2958L1.70902 12.9067L2.77321 13.8376L2.09786 14.3031L3.6532 16.0194L10.7137 14.08L15.7174 10.0752L2.72204 0.969727L1.02344 5.80851Z" fill="#763E1A" stroke="#763E1A" stroke-width="0.25" stroke-linecap="round" stroke-linejoin="round"/>
<path d="M32.7927 16.0195L25.7322 14.0801L27.8606 17.1152L24.6885 22.9819L28.8839 22.9334H35.1564L32.7927 16.0195ZM10.7108 14.0704L3.65036 16.0195L1.29688 22.9334H7.56943L11.7648 22.9819L8.59269 17.1152L10.7211 14.0704H10.7108ZM20.2783 17.4449L20.7387 10.0752L22.7852 4.83887H13.6578L15.7043 10.0752L16.1648 17.4449L16.3387 19.7528V25.474H20.0941L20.1145 19.7528L20.2783 17.4449Z" fill="#F5841F" stroke="#F5841F" stroke-width="0.25" stroke-linecap="round" stroke-linejoin="round"/>
</g>
<defs>
<clipPath id="clip0_278_3491">
<rect width="176" height="32" fill="white"/>
</clipPath>
</defs>
</svg>
