<svg width="206" height="20" viewBox="0 0 206 20" fill="none" xmlns="http://www.w3.org/2000/svg">
<g clip-path="url(#clip0_278_3506)">
<path d="M6.93533 3.86551C12.4592 -1.2872 21.4126 -1.2872 26.9364 3.86551L27.6002 4.48733C27.8749 4.74551 27.8749 5.16369 27.6002 5.42187L25.3266 7.54187C25.1892 7.66915 24.9641 7.66915 24.8268 7.54187L23.9113 6.68733C20.0583 3.09462 13.8096 3.09462 9.95667 6.68733L8.97626 7.60006C8.83893 7.72733 8.61385 7.72733 8.47652 7.60006L6.20289 5.48006C5.92822 5.22187 5.92822 4.80369 6.20289 4.54551L6.93152 3.86551H6.93533ZM31.6401 8.25097L33.6619 10.1382C33.9366 10.3964 33.9366 10.8146 33.6619 11.0728L24.5369 19.5855C24.2622 19.8437 23.8121 19.8437 23.5374 19.5855L17.0599 13.5455C16.9912 13.4801 16.8806 13.4801 16.8081 13.5455L10.3305 19.5855C10.0559 19.8437 9.6057 19.8437 9.33104 19.5855L0.206 11.0728C-0.0686667 10.8146 -0.0686667 10.3964 0.206 10.1382L2.22785 8.25097C2.50252 7.99278 2.95267 7.99278 3.22733 8.25097L9.70489 14.291C9.77356 14.3564 9.88418 14.3564 9.95667 14.291L16.4342 8.25097C16.7089 7.99278 17.159 7.99278 17.4337 8.25097L23.9113 14.2946C23.9799 14.3601 24.0906 14.3601 24.163 14.2946L30.6406 8.2546C30.9153 7.99642 31.3654 7.99642 31.6401 8.2546V8.25097Z" fill="#5570FF"/>
<path d="M47.53 18.1892L50.456 7.02917C50.6314 6.41462 50.7802 5.7528 50.9786 4.7128C51.1274 5.7528 51.3028 6.41462 51.4249 7.02917L53.9541 18.1892H59.1881L63.6018 1.63645H59.5848L57.1548 11.8037C56.9068 12.7964 56.758 13.5783 56.5826 14.7346C56.3842 13.6219 56.1858 12.7964 55.9607 11.8255L53.6032 1.63281H48.3426L45.7866 11.8255C45.5615 12.7964 45.3899 13.5746 45.1915 14.7346C44.9931 13.5746 44.8177 12.7964 44.5964 11.8255L42.216 1.63281H38.0234L42.4143 18.1855H47.5262L47.53 18.1892Z" fill="#5570FF"/>
<path d="M67.0909 18.6147C69.0746 18.6147 70.3411 17.8329 70.9858 16.6984C70.9095 17.0547 70.8867 17.4075 70.8867 17.7638V18.1893H74.2094V11.3566C74.2094 8.09474 72.6453 6.2002 68.8267 6.2002C65.5268 6.2002 63.3677 7.94929 63.1693 10.3602H66.8162C66.9421 9.29474 67.7356 8.65838 68.9487 8.65838C70.0894 8.65838 70.7112 9.27292 70.7112 9.98201C70.7112 10.502 70.3869 10.8111 69.4218 10.9275L67.686 11.1166C65.1072 11.4257 62.8984 12.3238 62.8984 14.9238C62.8984 17.2875 64.9584 18.6111 67.0909 18.6111V18.6147ZM68.2087 16.1784C67.2397 16.1784 66.5225 15.6584 66.5225 14.7602C66.5225 13.862 67.3427 13.4584 68.5825 13.2475L69.4256 13.1056C70.1466 12.9638 70.5433 12.8438 70.7913 12.6329V13.7202C70.7913 15.1857 69.6735 16.1784 68.2125 16.1784H68.2087Z" fill="#5570FF"/>
<path d="M76.1016 1.63672V18.1894H79.6989V1.63672H76.1016Z" fill="#5570FF"/>
<path d="M81.9453 1.63672V18.1894H85.5427V1.63672H81.9453Z" fill="#5570FF"/>
<path d="M93.5515 18.6147C96.9734 18.6147 99.1822 16.7711 99.4302 14.3602H95.8099C95.6344 15.4257 94.6922 16.0147 93.5515 16.0147C92.0142 16.0147 90.8964 14.8329 90.8735 13.2002H99.5065V12.5384C99.5065 8.70929 97.2977 6.2002 93.479 6.2002C89.6604 6.2002 87.2266 8.65838 87.2266 12.3711C87.2266 16.3893 89.8817 18.6147 93.5515 18.6147ZM90.8468 10.9529C90.9956 9.62929 92.0142 8.65838 93.4523 8.65838C94.8905 8.65838 95.8099 9.58201 95.8328 10.9529H90.8468Z" fill="#5570FF"/>
<path d="M107.287 18.4255C108.08 18.4255 108.851 18.3055 109.198 18.2109V15.6109C108.923 15.6582 108.603 15.6837 108.328 15.6837C107.012 15.6837 106.543 14.9746 106.543 13.8146V9.27274H109.469V6.60002H106.543V2.4873H102.972V6.60002H100.344V9.27274H102.972V14.2873C102.972 17.0291 104.41 18.4255 107.287 18.4255Z" fill="#5570FF"/>
<path d="M119.424 18.6146C124.337 18.6146 127.313 15.8728 127.683 11.9237H123.788C123.49 14.0764 121.903 15.5419 119.573 15.5419C116.818 15.5419 114.884 13.4146 114.884 9.81822C114.884 6.22185 116.895 4.28367 119.649 4.28367C122.006 4.28367 123.345 5.65458 123.616 7.66549H127.61C127.214 3.55276 124.04 1.21094 119.672 1.21094C114.686 1.21094 110.867 4.42549 110.867 9.81822C110.867 15.2109 114.217 18.6146 119.424 18.6146Z" fill="#5570FF"/>
<path d="M135.32 18.6147C139.066 18.6147 141.721 16.3675 141.721 12.4438C141.721 8.5202 139.066 6.2002 135.32 6.2002C131.574 6.2002 128.945 8.58929 128.945 12.4438C128.945 16.2984 131.574 18.6147 135.32 18.6147ZM135.32 15.9675C133.657 15.9675 132.592 14.6657 132.592 12.4438C132.592 10.222 133.71 8.89838 135.32 8.89838C136.93 8.89838 138.074 10.1747 138.074 12.4438C138.074 14.7129 136.983 15.9675 135.32 15.9675Z" fill="#5570FF"/>
<path d="M146.73 18.1893V11.4038C146.73 9.9602 147.672 8.89838 149.011 8.89838C150.278 8.89838 151.022 9.82201 151.022 11.3566V18.1893H154.619V10.8584C154.619 8.06929 153.082 6.2002 150.328 6.2002C148.416 6.2002 147.253 7.07656 146.631 8.11656C146.703 7.6911 146.73 7.36019 146.73 7.0511V6.60019H143.133V18.1856H146.73V18.1893Z" fill="#5570FF"/>
<path d="M160.207 18.1893V11.4038C160.207 9.9602 161.149 8.89838 162.488 8.89838C163.755 8.89838 164.498 9.82201 164.498 11.3566V18.1893H168.096V10.8584C168.096 8.06929 166.558 6.2002 163.804 6.2002C161.893 6.2002 160.729 7.07656 160.108 8.11656C160.18 7.6911 160.207 7.36019 160.207 7.0511V6.60019H156.609V18.1856H160.207V18.1893Z" fill="#5570FF"/>
<path d="M175.833 18.6147C179.255 18.6147 181.463 16.7711 181.711 14.3602H178.091C177.916 15.4257 176.973 16.0147 175.833 16.0147C174.295 16.0147 173.178 14.8329 173.155 13.2002H181.788V12.5384C181.788 8.70929 179.579 6.2002 175.76 6.2002C171.942 6.2002 169.508 8.65838 169.508 12.3711C169.508 16.3893 172.163 18.6147 175.833 18.6147ZM173.128 10.9529C173.277 9.62929 174.292 8.65838 175.734 8.65838C177.176 8.65838 178.091 9.58201 178.114 10.9529H173.128Z" fill="#5570FF"/>
<path d="M189.514 18.6147C193.283 18.6147 195.343 16.6511 195.739 13.6002H192.142C192.02 14.8766 191.249 15.9638 189.636 15.9638C188.022 15.9638 186.881 14.5202 186.881 12.3929C186.881 10.0766 188.171 8.89474 189.708 8.89474C191.245 8.89474 191.966 9.93474 192.066 11.142H195.663C195.392 8.32747 193.382 6.2002 189.685 6.2002C185.989 6.2002 183.234 8.46929 183.234 12.3966C183.234 16.3238 185.642 18.6147 189.51 18.6147H189.514Z" fill="#5570FF"/>
<path d="M203.521 18.4255C204.315 18.4255 205.085 18.3055 205.432 18.2109V15.6109C205.158 15.6582 204.837 15.6837 204.563 15.6837C203.246 15.6837 202.777 14.9746 202.777 13.8146V9.27274H205.703V6.60002H202.777V2.4873H199.207V6.60002H196.578V9.27274H199.207V14.2873C199.207 17.0291 200.645 18.4255 203.521 18.4255Z" fill="#5570FF"/>
</g>
<defs>
<clipPath id="clip0_278_3506">
<rect width="206" height="20" fill="white"/>
</clipPath>
</defs>
</svg>
