<svg viewBox="0 0 28 24" fill="none" xmlns="http://www.w3.org/2000/svg">
<path d="M8.06673 13.3333L9.19606 10.5133L10.3227 13.3333H8.06673ZM19.3307 12H20.6641V14.6667H19.3307C18.9771 14.6667 18.638 14.5262 18.3879 14.2761C18.1379 14.0261 17.9974 13.687 17.9974 13.3333C17.9974 12.9797 18.1379 12.6406 18.3879 12.3905C18.638 12.1405 18.9771 12 19.3307 12ZM25.9974 0H1.9974C1.64377 0 1.30464 0.140476 1.05459 0.390524C0.804538 0.640573 0.664063 0.979711 0.664062 1.33333V22.6667C0.664063 23.0203 0.804538 23.3594 1.05459 23.6095C1.30464 23.8595 1.64377 24 1.9974 24H25.9974C26.351 24 26.6902 23.8595 26.9402 23.6095C27.1903 23.3594 27.3307 23.0203 27.3307 22.6667V1.33333C27.3307 0.979711 27.1903 0.640573 26.9402 0.390524C26.6902 0.140476 26.351 0 25.9974 0ZM14.7947 17.3333H11.9214L11.3881 16H7.0014L6.46806 17.3333H3.59606L5.19473 13.336L5.19606 13.3333L7.86273 6.66667H10.5294L14.7947 17.3333ZM20.6641 6.66667H23.3307V17.3333H19.3307C18.2699 17.3333 17.2524 16.9119 16.5023 16.1618C15.7522 15.4116 15.3307 14.3942 15.3307 13.3333C15.3307 12.2725 15.7522 11.2551 16.5023 10.5049C17.2524 9.75476 18.2699 9.33333 19.3307 9.33333H20.6641V6.66667Z" fill="currentColor"/>
</svg>
