<svg width="14" height="14" viewBox="0 0 14 14" fill="none" xmlns="http://www.w3.org/2000/svg">
<path d="M6.99844 8.86693L3.13177 12.7336C2.88733 12.978 2.57621 13.1003 2.19844 13.1003C1.82066 13.1003 1.50955 12.978 1.2651 12.7336C1.02066 12.4891 0.898437 12.178 0.898438 11.8003C0.898438 11.4225 1.02066 11.1114 1.2651 10.8669L5.13177 7.00026L1.2651 3.16693C1.02066 2.92248 0.898438 2.61137 0.898438 2.23359C0.898438 1.85582 1.02066 1.54471 1.2651 1.30026C1.50955 1.05582 1.82066 0.933594 2.19844 0.933594C2.57621 0.933594 2.88733 1.05582 3.13177 1.30026L6.99844 5.16693L10.8318 1.30026C11.0762 1.05582 11.3873 0.933594 11.7651 0.933594C12.1429 0.933594 12.454 1.05582 12.6984 1.30026C12.9651 1.56693 13.0984 1.88382 13.0984 2.25093C13.0984 2.61804 12.9651 2.92337 12.6984 3.16693L8.83177 7.00026L12.6984 10.8669C12.9429 11.1114 13.0651 11.4225 13.0651 11.8003C13.0651 12.178 12.9429 12.4891 12.6984 12.7336C12.4318 13.0003 12.1153 13.1336 11.7491 13.1336C11.3829 13.1336 11.0771 13.0003 10.8318 12.7336L6.99844 8.86693Z" fill="#333333"/>
</svg>
