<svg t="1719907425611" class="icon" viewBox="0 0 1756 1024" version="1.1" xmlns="http://www.w3.org/2000/svg" p-id="12533" width="64" height="64"><path d="M1398.479 319.817c0-9.143-3.474-18.286-10.422-25.235-13.898-13.897-36.572-13.897-50.651 0l-421.12 421.12c-8.046 8.046-18.651 12.434-29.988 12.434-11.338 0-21.943-4.388-29.989-12.434l-421.12-421.12c-13.897-13.897-36.571-13.897-50.651 0-13.898 13.897-13.898 36.571 0 50.651l421.301 420.937c21.578 21.578 50.103 33.463 80.64 33.463 30.355 0 59.063-11.885 80.64-33.463l420.94-420.937c6.948-6.948 10.422-16.274 10.422-25.417z" fill="currentColor" p-id="12534"></path></svg>