<svg viewBox="0 0 28 28" fill="none" xmlns="http://www.w3.org/2000/svg">
<path fill-rule="evenodd" clip-rule="evenodd" d="M1.11049 8.50033C0.390492 10.003 0.643826 11.7617 1.15049 15.2777L1.52116 17.8603C2.17049 22.3777 2.49583 24.635 4.06249 25.9843C5.62916 27.3337 7.92649 27.3337 12.5225 27.3337H15.4718C20.0678 27.3337 22.3652 27.3337 23.9318 25.9843C25.4985 24.635 25.8238 22.3777 26.4732 17.8603L26.8452 15.2777C27.3518 11.7617 27.6052 10.003 26.8838 8.50033C26.1638 6.99766 24.6292 6.08299 21.5612 4.25633L19.7145 3.15633C16.9305 1.49633 15.5358 0.666992 13.9972 0.666992C12.4585 0.666992 11.0652 1.49633 8.27982 3.15633L6.43316 4.25633C3.36649 6.08299 1.83183 6.99766 1.11049 8.50033ZM13.9972 23.0003C13.7319 23.0003 13.4776 22.895 13.2901 22.7074C13.1025 22.5199 12.9972 22.2655 12.9972 22.0003V18.0003C12.9972 17.7351 13.1025 17.4808 13.2901 17.2932C13.4776 17.1057 13.7319 17.0003 13.9972 17.0003C14.2624 17.0003 14.5167 17.1057 14.7043 17.2932C14.8918 17.4808 14.9972 17.7351 14.9972 18.0003V22.0003C14.9972 22.2655 14.8918 22.5199 14.7043 22.7074C14.5167 22.895 14.2624 23.0003 13.9972 23.0003Z" fill="currentColor"/>
</svg>
