<svg viewBox="0 0 28 28" fill="none" xmlns="http://www.w3.org/2000/svg">
<path d="M12.6641 20.667H15.3307V12.667H12.6641V20.667ZM13.9974 10.0003C14.3752 10.0003 14.6921 9.87233 14.9481 9.61633C15.2041 9.36033 15.3316 9.04388 15.3307 8.66699C15.3298 8.2901 15.2018 7.97366 14.9467 7.71766C14.6916 7.46166 14.3752 7.33366 13.9974 7.33366C13.6196 7.33366 13.3032 7.46166 13.0481 7.71766C12.793 7.97366 12.665 8.2901 12.6641 8.66699C12.6632 9.04388 12.7912 9.36077 13.0481 9.61766C13.305 9.87455 13.6214 10.0021 13.9974 10.0003ZM13.9974 27.3337C12.153 27.3337 10.4196 26.9834 8.7974 26.283C7.17518 25.5825 5.76406 24.6328 4.56406 23.4337C3.36406 22.2345 2.41429 20.8234 1.71473 19.2003C1.01518 17.5772 0.664953 15.8439 0.664064 14.0003C0.663175 12.1568 1.0134 10.4234 1.71473 8.80033C2.41606 7.17722 3.36584 5.7661 4.56406 4.56699C5.76229 3.36788 7.1734 2.4181 8.7974 1.71766C10.4214 1.01721 12.1547 0.666992 13.9974 0.666992C15.8401 0.666992 17.5734 1.01721 19.1974 1.71766C20.8214 2.4181 22.2325 3.36788 23.4307 4.56699C24.629 5.7661 25.5792 7.17722 26.2814 8.80033C26.9836 10.4234 27.3334 12.1568 27.3307 14.0003C27.3281 15.8439 26.9778 17.5772 26.2801 19.2003C25.5823 20.8234 24.6325 22.2345 23.4307 23.4337C22.229 24.6328 20.8178 25.583 19.1974 26.2843C17.577 26.9857 15.8436 27.3354 13.9974 27.3337Z" fill="currentColor"/>
</svg>
