<svg width="30" height="32" viewBox="0 0 30 32" fill="none" xmlns="http://www.w3.org/2000/svg">
<path d="M16.3093 0.33252H13.6976C13.4655 0.33252 13.3494 0.448591 13.3494 0.680734V14.3481H0.379464C0.147321 14.3481 0.03125 14.4642 0.03125 14.6964V17.308C0.03125 17.5401 0.147321 17.6562 0.379464 17.6562H13.3494V31.3236C13.3494 31.5557 13.4655 31.6718 13.6976 31.6718H16.3093C16.5414 31.6718 16.6575 31.5557 16.6575 31.3236V17.6562H29.6295C29.8616 17.6562 29.9777 17.5401 29.9777 17.308V14.6964C29.9777 14.4642 29.8616 14.3481 29.6295 14.3481H16.6575V0.680734C16.6575 0.448591 16.5414 0.33252 16.3093 0.33252Z" fill="currentColor"/>
</svg>
