<svg width="314" height="41" viewBox="0 0 314 41" fill="none" xmlns="http://www.w3.org/2000/svg">
<line x1="105" y1="8.5" y2="8.5" stroke="url(#paint0_linear_264_1662)"/>
<path d="M117.8 9.96V7.752H132.2V9.96H117.8ZM145.736 16.632C144.936 14.904 144.408 12.952 143.976 10.904H142.616C142.184 12.984 141.656 14.952 140.84 16.632H138.6C139.448 14.744 140.088 12.84 140.536 10.904H138.632V8.856H141.88V5.544H139.272V3.496H141.88V2.04H143.96V3.496H147.736V8.856H148.44V10.904H146.056C146.504 12.808 147.128 14.712 147.976 16.632H145.736ZM133.688 15.256V13.112L135.32 12.84V7.416H133.784V5.272H135.32V2.168H137.448V5.272H138.984V7.416H137.448V12.488L139 12.232V14.376L133.688 15.256ZM143.896 8.856H145.752V5.544H143.896V8.856ZM149.56 16.6C150.52 14.2 150.776 11.784 150.776 9.208V3.672H156.28V1.976H158.392V3.672H164.2V5.784H152.888V9.208C152.888 11.816 152.648 14.152 151.864 16.6H149.56ZM166.968 10.296H179.032V16.44H166.968V10.296ZM165.656 9.256V7.288H172.136L172.12 5.208H168.792C168.632 5.736 168.424 6.248 168.184 6.76H165.832C166.584 5.304 167.096 3.784 167.272 2.2H169.368C169.336 2.552 169.304 2.904 169.256 3.24H172.12V2.04H174.2V3.24H179.512V5.208H174.2V7.288H180.344V9.256H165.656ZM169.048 14.456H176.952V12.28H169.048V14.456ZM188.104 2.92H190.52L190.792 2.04H192.808L192.552 2.92H195.912V10.472H191.56L190.792 12.264H188.712L189.496 10.472H188.104V2.92ZM181.576 16.6C182.216 14.344 182.376 12.408 182.376 9.832V2.44H184.28V5.928H185.192V2.2H187.016V5.928H187.848V7.976H184.28V9.448H187.4V16.6H185.528V11.496H184.248C184.184 13.272 183.992 14.92 183.624 16.6H181.576ZM187.8 14.504V12.584H192.024V11.08H194.056V12.584H196.296V14.504H194.056V16.6H192.024V14.504H187.8ZM189.944 8.776H191.144V7.464H189.944V8.776ZM189.944 5.928H191.144V4.616H189.944V5.928ZM192.856 8.776H194.072V7.464H192.856V8.776ZM192.856 5.928H194.072V4.616H192.856V5.928Z" fill="#BCBCBC"/>
<line y1="-0.5" x2="105" y2="-0.5" transform="matrix(1 0 0 -1 209 8)" stroke="url(#paint1_linear_264_1662)"/>
<path d="M93.36 36.57C93.776 36.57 94.088 36.895 94.79 37.272C95.609 37.727 96.753 37.792 98.157 37.792C99.639 37.792 101.68 37.701 103.006 37.545C102.876 37.831 102.72 38.338 102.694 38.65C101.667 38.715 99.444 38.78 98.131 38.78C96.597 38.78 95.479 38.65 94.582 38.182C94.049 37.883 93.633 37.519 93.347 37.519C92.905 37.519 92.281 38.195 91.644 38.936L90.955 37.987C91.8 37.181 92.697 36.57 93.36 36.57ZM91.28 28.159L92.047 27.652C92.736 28.224 93.568 29.069 93.945 29.654L93.126 30.226C92.775 29.641 91.969 28.783 91.28 28.159ZM93.763 31.981V37.064H92.814V32.891H91.137V31.981H93.763ZM94.335 29.121H102.785V30.044H94.335V29.121ZM100.315 29.303L101.29 29.498C100.263 33.268 98.209 35.517 94.855 36.843C94.751 36.635 94.452 36.193 94.257 35.985C97.507 34.867 99.444 32.774 100.315 29.303ZM97.299 27.301L98.222 27.015C98.599 27.587 99.028 28.38 99.21 28.874L98.235 29.225C98.079 28.718 97.663 27.899 97.299 27.301ZM94.725 31.357L95.414 30.759C97.715 32.345 100.77 34.633 102.304 36.089L101.537 36.804C100.107 35.348 97.091 32.982 94.725 31.357ZM109.064 30.941V32.592H116.266V30.941H109.064ZM109.064 28.484V30.109H116.266V28.484H109.064ZM108.102 27.6H117.28V33.476H108.102V27.6ZM106.802 37.766H118.411V38.676H106.802V37.766ZM107.673 34.971H117.709V35.894H107.673V34.971ZM112.171 28.159H113.107V33.333H113.159V38.286H112.119V33.333H112.171V28.159ZM122.454 32.813H133.959V33.697H122.454V32.813ZM128.239 35.14H133.101V35.998H128.239V35.14ZM127.81 33.203H128.798V38.13H127.81V33.203ZM125.262 35.322C126.055 37.454 127.771 37.857 130.319 37.87C130.813 37.87 133.53 37.87 134.206 37.857C134.063 38.078 133.907 38.507 133.855 38.793H130.28C127.238 38.793 125.47 38.247 124.456 35.621L125.262 35.322ZM124.703 34.113L125.678 34.256C125.262 36.414 124.326 38.026 122.896 39.066C122.753 38.884 122.376 38.533 122.155 38.377C123.533 37.48 124.365 36.024 124.703 34.113ZM124.768 30.122V31.188H131.541V30.122H124.768ZM124.768 28.367V29.42H131.541V28.367H124.768ZM123.819 27.626H132.529V31.929H123.819V27.626ZM143.28 31.721H144.333V37.779C144.333 38.403 144.177 38.702 143.722 38.871C143.254 39.014 142.487 39.027 141.343 39.027C141.291 38.741 141.135 38.312 140.979 38.013C141.863 38.039 142.721 38.039 142.968 38.026C143.215 38.026 143.28 37.961 143.28 37.753V31.721ZM140.329 33.45L141.343 33.71C140.706 35.309 139.679 36.869 138.639 37.87C138.444 37.688 138.002 37.415 137.742 37.272C138.808 36.349 139.77 34.919 140.329 33.45ZM146.179 33.84L147.076 33.463C148.038 34.685 149.052 36.336 149.429 37.441L148.454 37.87C148.103 36.791 147.128 35.088 146.179 33.84ZM139.237 28.055H148.376V29.017H139.237V28.055ZM138.067 31.201H149.533V32.176H138.067V31.201ZM156.878 27.756H161.597V28.627H156.878V27.756ZM158.152 30.473H160.635V31.344H157.879L158.152 30.473ZM157.398 33.424L157.814 32.683C158.529 33.151 159.387 33.827 159.79 34.269L159.361 35.114C158.958 34.62 158.113 33.918 157.398 33.424ZM161.675 28.562H162.559V36.063H161.675V28.562ZM164.041 27.288H164.964V37.818C164.964 38.442 164.808 38.715 164.431 38.871C164.054 39.027 163.404 39.053 162.39 39.053C162.338 38.806 162.195 38.377 162.065 38.104C162.845 38.13 163.534 38.117 163.755 38.117C163.963 38.104 164.041 38.039 164.041 37.818V27.288ZM158.139 28.055L159.088 28.185C158.737 30.434 158.074 33.177 156.67 34.828C156.527 34.633 156.254 34.321 156.059 34.152C157.333 32.631 157.905 30.057 158.139 28.055ZM160.258 30.473H160.44L160.609 30.434L161.168 30.616C160.661 34.854 159.231 37.649 157.229 39.079C157.099 38.845 156.787 38.481 156.592 38.338C158.503 37.025 159.829 34.477 160.258 30.681V30.473ZM155.916 27.132L156.826 27.392C156.085 29.628 154.928 31.903 153.641 33.411C153.55 33.19 153.29 32.657 153.121 32.423C154.265 31.123 155.292 29.134 155.916 27.132ZM154.876 30.343L155.747 29.459L155.773 29.485V39.04H154.876V30.343ZM174.741 32.6403L173.49 32.8619C173.438 32.7018 173.355 32.5495 173.241 32.4048C173.13 32.2602 172.98 32.1417 172.789 32.0494C172.598 31.957 172.359 31.9109 172.073 31.9109C171.682 31.9109 171.356 31.9986 171.094 32.174C170.833 32.3464 170.702 32.5695 170.702 32.8434C170.702 33.0804 170.79 33.2712 170.965 33.4158C171.141 33.5605 171.424 33.679 171.815 33.7713L172.941 34.0298C173.594 34.1806 174.08 34.413 174.4 34.7269C174.72 35.0408 174.88 35.4486 174.88 35.9503C174.88 36.375 174.757 36.7536 174.511 37.0859C174.268 37.4152 173.927 37.6738 173.49 37.8615C173.056 38.0492 172.553 38.1431 171.981 38.1431C171.187 38.1431 170.539 37.9738 170.037 37.6353C169.536 37.2937 169.228 36.8089 169.114 36.1811L170.448 35.978C170.531 36.3258 170.702 36.5889 170.961 36.7674C171.219 36.9428 171.556 37.0305 171.972 37.0305C172.424 37.0305 172.786 36.9367 173.056 36.7489C173.327 36.5581 173.463 36.3258 173.463 36.0518C173.463 35.8303 173.38 35.6441 173.213 35.4933C173.05 35.3424 172.799 35.2286 172.461 35.1516L171.261 34.8885C170.599 34.7377 170.11 34.4976 169.793 34.1683C169.479 33.839 169.322 33.422 169.322 32.9173C169.322 32.4987 169.439 32.1325 169.673 31.8185C169.906 31.5046 170.23 31.2599 170.642 31.0845C171.054 30.906 171.527 30.8168 172.059 30.8168C172.826 30.8168 173.429 30.983 173.869 31.3153C174.309 31.6446 174.6 32.0863 174.741 32.6403ZM180.378 28.5455V38H178.998V28.5455H180.378ZM187.822 38.1431C187.157 38.1431 186.577 37.9908 186.081 37.6861C185.586 37.3814 185.201 36.9551 184.927 36.4073C184.653 35.8595 184.516 35.2193 184.516 34.4869C184.516 33.7513 184.653 33.1081 184.927 32.5572C185.201 32.0063 185.586 31.5785 186.081 31.2738C186.577 30.9691 187.157 30.8168 187.822 30.8168C188.487 30.8168 189.067 30.9691 189.562 31.2738C190.058 31.5785 190.442 32.0063 190.716 32.5572C190.99 33.1081 191.127 33.7513 191.127 34.4869C191.127 35.2193 190.99 35.8595 190.716 36.4073C190.442 36.9551 190.058 37.3814 189.562 37.6861C189.067 37.9908 188.487 38.1431 187.822 38.1431ZM187.826 36.9844C188.257 36.9844 188.614 36.8705 188.897 36.6428C189.181 36.415 189.39 36.1119 189.525 35.7333C189.664 35.3548 189.733 34.9377 189.733 34.4822C189.733 34.0298 189.664 33.6143 189.525 33.2358C189.39 32.8542 189.181 32.5479 188.897 32.3171C188.614 32.0863 188.257 31.9709 187.826 31.9709C187.392 31.9709 187.032 32.0863 186.746 32.3171C186.463 32.5479 186.252 32.8542 186.114 33.2358C185.978 33.6143 185.911 34.0298 185.911 34.4822C185.911 34.9377 185.978 35.3548 186.114 35.7333C186.252 36.1119 186.463 36.415 186.746 36.6428C187.032 36.8705 187.392 36.9844 187.826 36.9844ZM198.241 40.8068C197.678 40.8068 197.193 40.733 196.787 40.5852C196.384 40.4375 196.054 40.2421 195.799 39.9989C195.543 39.7558 195.353 39.4896 195.226 39.2003L196.413 38.7109C196.496 38.8464 196.607 38.9895 196.745 39.1403C196.887 39.2942 197.078 39.425 197.318 39.5327C197.561 39.6404 197.873 39.6942 198.255 39.6942C198.778 39.6942 199.21 39.5665 199.552 39.3111C199.894 39.0587 200.064 38.6555 200.064 38.1016V36.7074H199.977C199.894 36.8582 199.774 37.0259 199.617 37.2106C199.463 37.3952 199.25 37.5553 198.98 37.6907C198.709 37.8261 198.356 37.8938 197.922 37.8938C197.362 37.8938 196.858 37.763 196.408 37.5014C195.962 37.2367 195.608 36.8474 195.346 36.3335C195.088 35.8164 194.959 35.1809 194.959 34.4268C194.959 33.6728 195.086 33.0265 195.342 32.4879C195.6 31.9493 195.954 31.5369 196.404 31.2507C196.853 30.9614 197.362 30.8168 197.932 30.8168C198.372 30.8168 198.727 30.8906 198.998 31.0384C199.269 31.183 199.48 31.3523 199.631 31.5462C199.784 31.7401 199.903 31.9109 199.986 32.0586H200.088V30.9091H201.44V38.157C201.44 38.7663 201.299 39.2665 201.015 39.6573C200.732 40.0482 200.349 40.3375 199.866 40.5252C199.386 40.7129 198.844 40.8068 198.241 40.8068ZM198.227 36.7489C198.624 36.7489 198.96 36.6566 199.234 36.4719C199.51 36.2842 199.72 36.0165 199.861 35.6687C200.006 35.3178 200.078 34.8977 200.078 34.4084C200.078 33.9313 200.008 33.5112 199.866 33.1481C199.724 32.7849 199.517 32.5018 199.243 32.2987C198.969 32.0924 198.63 31.9893 198.227 31.9893C197.812 31.9893 197.465 32.0971 197.188 32.3125C196.911 32.5249 196.702 32.8142 196.561 33.1804C196.422 33.5466 196.353 33.956 196.353 34.4084C196.353 34.8731 196.424 35.2809 196.565 35.6317C196.707 35.9826 196.916 36.2565 197.193 36.4535C197.473 36.6504 197.818 36.7489 198.227 36.7489ZM207.955 38.157C207.506 38.157 207.099 38.0739 206.736 37.9077C206.373 37.7384 206.085 37.4937 205.873 37.1737C205.664 36.8536 205.559 36.4612 205.559 35.9964C205.559 35.5964 205.636 35.267 205.79 35.0085C205.944 34.75 206.151 34.5453 206.413 34.3945C206.675 34.2437 206.967 34.1299 207.29 34.0529C207.613 33.976 207.943 33.9175 208.278 33.8775C208.703 33.8282 209.048 33.7882 209.312 33.7575C209.577 33.7236 209.769 33.6697 209.889 33.5959C210.009 33.522 210.069 33.402 210.069 33.2358V33.2035C210.069 32.8003 209.955 32.4879 209.728 32.2663C209.503 32.0447 209.168 31.9339 208.721 31.9339C208.257 31.9339 207.89 32.037 207.623 32.2433C207.358 32.4464 207.175 32.6726 207.073 32.9219L205.776 32.6264C205.93 32.1955 206.155 31.8478 206.45 31.5831C206.749 31.3153 207.092 31.1214 207.479 31.0014C207.867 30.8783 208.275 30.8168 208.703 30.8168C208.986 30.8168 209.286 30.8506 209.603 30.9183C209.923 30.983 210.222 31.103 210.499 31.2784C210.779 31.4538 211.008 31.7047 211.186 32.0309C211.365 32.354 211.454 32.7741 211.454 33.2912V38H210.106V37.0305H210.051C209.962 37.209 209.828 37.3845 209.649 37.5568C209.471 37.7292 209.241 37.8723 208.961 37.9862C208.681 38.1 208.346 38.157 207.955 38.157ZM208.255 37.049C208.637 37.049 208.963 36.9736 209.234 36.8228C209.508 36.672 209.715 36.475 209.857 36.2319C210.002 35.9857 210.074 35.7225 210.074 35.4425V34.5284C210.025 34.5777 209.929 34.6238 209.788 34.6669C209.649 34.7069 209.491 34.7423 209.312 34.7731C209.134 34.8008 208.96 34.8269 208.791 34.8516C208.621 34.8731 208.48 34.8916 208.366 34.907C208.098 34.9408 207.853 34.9978 207.632 35.0778C207.413 35.1578 207.238 35.2732 207.106 35.424C206.976 35.5717 206.912 35.7687 206.912 36.0149C206.912 36.3565 207.038 36.6151 207.29 36.7905C207.543 36.9628 207.864 37.049 208.255 37.049ZM217.273 33.7898V38H215.893V30.9091H217.218V32.0632H217.305C217.469 31.6877 217.724 31.3861 218.072 31.1584C218.423 30.9306 218.864 30.8168 219.397 30.8168C219.88 30.8168 220.303 30.9183 220.666 31.1214C221.029 31.3215 221.311 31.62 221.511 32.017C221.711 32.4141 221.811 32.9049 221.811 33.4897V38H220.431V33.6559C220.431 33.1419 220.297 32.7403 220.029 32.451C219.761 32.1586 219.394 32.0124 218.926 32.0124C218.606 32.0124 218.321 32.0817 218.072 32.2202C217.826 32.3587 217.63 32.5618 217.485 32.8295C217.344 33.0942 217.273 33.4143 217.273 33.7898Z" fill="#BCBCBC"/>
<defs>
<linearGradient id="paint0_linear_264_1662" x1="0" y1="7.5" x2="105" y2="7.5" gradientUnits="userSpaceOnUse">
<stop stop-color="#F8F8F8" stop-opacity="0"/>
<stop offset="1" stop-color="#D3D3D3"/>
</linearGradient>
<linearGradient id="paint1_linear_264_1662" x1="105" y1="0.5" x2="0" y2="0.5" gradientUnits="userSpaceOnUse">
<stop stop-color="#F8F8F8" stop-opacity="0"/>
<stop offset="1" stop-color="#D3D3D3"/>
</linearGradient>
</defs>
</svg>
