<svg width="264" height="48" viewBox="0 0 264 48" fill="none" xmlns="http://www.w3.org/2000/svg">
<path d="M83.12 8.24H100.86V11.36H83.12V8.24ZM115.68 12.38C116.16 13.38 116.833 14.2333 117.7 14.94C118.567 15.6467 119.693 16.2733 121.08 16.82L119.72 19.6C117.133 18.4133 115.24 16.7933 114.04 14.74C113.573 15.6467 112.947 16.5 112.16 17.3C111.387 18.1 110.427 18.8867 109.28 19.66L107.42 17.14C108.78 16.4467 109.84 15.7267 110.6 14.98C111.36 14.2333 111.887 13.3667 112.18 12.38H108.7V9.72H112.5V6.12H109.52V3.46H112.52V0.879999H115.22V3.46H119.62V9.72H120.96V12.38H115.68ZM108.94 14.12L109.14 15.62C108.713 15.7533 107.793 16.08 106.38 16.6C104.967 17.1067 103.967 17.48 103.38 17.72L102.78 14.86C103.22 14.7533 103.913 14.5467 104.86 14.24V8.14H103.06V5.48H104.86V1H107.44V5.48H109.02V8.14H107.44V13.36C108.053 13.1467 108.493 12.98 108.76 12.86L108.94 14.12ZM115.2 6.12L115.18 9.72H117.02V6.12H115.2ZM135.2 3.02H141V5.9H127.82V8.52C127.82 10.4 127.767 11.92 127.66 13.08C127.553 14.2267 127.34 15.3 127.02 16.3C126.713 17.3 126.24 18.3933 125.6 19.58L122.92 17.6C123.48 16.6667 123.887 15.8133 124.14 15.04C124.407 14.2533 124.58 13.4133 124.66 12.52C124.74 11.6133 124.78 10.3667 124.78 8.78V3.02H131.44L130.76 1.14L134.36 0.759999L135.2 3.02ZM153.94 7.54H160.92V10.2H143.18V7.54H150.98V5.68H147.28C146.947 6.41333 146.647 6.99333 146.38 7.42L143.78 6.38C144.78 4.7 145.467 3.02667 145.84 1.36L148.64 1.66C148.56 2.1 148.44 2.55333 148.28 3.02H150.98V0.859999H153.94V3.02H159.94V5.68H153.94V7.54ZM147.82 19.62H145V11.38H159.14V19.62H156.3V18.7H147.82V19.62ZM156.3 16.04V13.9H147.82V16.04H156.3ZM181.04 13.96V16.4H177.74V19.46H175.08V16.4H169.84V13.96H171.18L170.46 13C170.873 12.76 171.273 12.52 171.66 12.28C172.047 12.0267 172.36 11.7933 172.6 11.58H170.4V2.32H173.52C173.707 1.84 173.84 1.43333 173.92 1.1L176.68 1.36L176.36 2.32H180.44V11.58H175.42C174.887 12.42 174.107 13.2133 173.08 13.96H175.08V12.22H177.74V13.96H181.04ZM166.26 9.08V10.36H169.42V19.28H167.2V12.92H166.22C166.167 14.36 166.033 15.5867 165.82 16.6C165.62 17.6133 165.313 18.6133 164.9 19.6L162.78 17.98C163.06 17.1267 163.267 16.3933 163.4 15.78C163.547 15.1667 163.647 14.4 163.7 13.48C163.767 12.5467 163.8 11.26 163.8 9.62V2.06H166.26V6.6H167.06V1.68H169.2V6.6H169.9V9.08H166.26ZM174.28 6V4.52H172.72V6H174.28ZM176.56 6H178.14V4.52H176.56V6ZM172.72 7.92V9.34H174.04C174.147 8.87333 174.22 8.4 174.26 7.92H172.72ZM178.14 9.34V7.92H176.52C176.48 8.48 176.413 8.95333 176.32 9.34H178.14Z" fill="#E0E0E0"/>
<path d="M31.408 38.304H40.704V39.424H31.408V38.304ZM31.408 41.776H40.704V42.896H31.408V41.776ZM31.408 45.28H40.704V46.4H31.408V45.28ZM30.592 34.752H41.632V47.216H40.384V35.904H31.808V47.296H30.592V34.752ZM35.28 32.544L36.672 32.72C36.32 33.68 35.904 34.72 35.552 35.408L34.48 35.2C34.768 34.448 35.12 33.328 35.28 32.544ZM53.952 45.488H60.608V46.592H53.952V45.488ZM53.376 40.848H61.2V47.248H59.984V41.968H54.544V47.312H53.376V40.848ZM52.016 38.208C54.288 38.128 57.888 37.952 61.28 37.776L61.264 38.88C57.968 39.088 54.496 39.28 52.16 39.408L52.016 38.208ZM58.256 35.536L59.296 35.008C60.608 36.416 62.016 38.336 62.656 39.6L61.552 40.224C60.928 38.944 59.52 36.96 58.256 35.536ZM55.76 32.544L57.12 32.88C56.352 34.864 55.296 37.328 54.432 38.88L53.36 38.544C54.208 36.944 55.232 34.384 55.76 32.544ZM48.688 33.568L49.344 32.672C50.416 33.072 51.76 33.792 52.416 34.352L51.712 35.36C51.072 34.784 49.776 34.032 48.688 33.568ZM47.808 37.936L48.464 37.008C49.536 37.36 50.912 38 51.6 38.512L50.928 39.552C50.256 39.024 48.912 38.336 47.808 37.936ZM48.336 46.256C49.184 45.04 50.432 42.928 51.36 41.104L52.24 41.888C51.408 43.584 50.304 45.584 49.36 47.072L48.336 46.256ZM67.152 36.576H81.68V37.744H67.152V36.576ZM70.176 44.944H81.136V46.096H70.176V44.944ZM74.288 41.088H78.512V42.224H74.288V41.088ZM69.552 32.992H70.784V47.296H69.552V32.992ZM73.76 32.656H74.976V43.008H73.76V32.656ZM77.984 32.832H79.184V42.928H77.984V32.832ZM89.296 36.768V38.512H97.872V36.768H89.296ZM89.296 34.096V35.808H97.872V34.096H89.296ZM88.096 33.088H99.104V39.504H88.096V33.088ZM95.36 38.848C96.48 40.4 98.736 41.696 100.976 42.288C100.704 42.528 100.352 42.992 100.176 43.312C97.888 42.576 95.6 41.056 94.336 39.232L95.36 38.848ZM91.904 38.848L92.944 39.28C91.664 41.056 89.312 42.592 87.12 43.376C86.928 43.072 86.576 42.624 86.304 42.384C88.464 41.76 90.752 40.384 91.904 38.848ZM90.576 41.664H91.792V42.656C91.792 44.192 91.408 46.128 88.304 47.376C88.128 47.072 87.744 46.656 87.472 46.416C90.288 45.36 90.576 43.808 90.576 42.624V41.664ZM92.96 33.616H94.176V39.056H92.96V33.616ZM95.664 41.664H96.896V47.248H95.664V41.664ZM106.336 35.424H119.232V42.96H117.984V36.608H107.536V43.04H106.336V35.424ZM106.976 40.864H118.704V42.032H106.976V40.864ZM112.128 32.56H113.376V47.264H112.128V32.56ZM126.096 35.136H130.96V45.6H126.096V44.512H129.84V36.208H126.096V35.136ZM125.376 35.136H126.496V46.88H125.376V35.136ZM126.016 39.584H130.432V40.656H126.016V39.584ZM127.824 32.528L129.12 32.768C128.8 33.76 128.4 34.864 128.08 35.584L127.12 35.344C127.392 34.576 127.696 33.36 127.824 32.528ZM133.232 35.088H138.144V36.208H133.232V35.088ZM137.728 35.088H138.848C138.848 35.088 138.848 35.536 138.848 35.712C138.592 43.056 138.368 45.536 137.728 46.32C137.376 46.784 137.008 46.928 136.448 46.976C135.904 47.04 134.96 47.008 134.064 46.96C134.032 46.608 133.888 46.112 133.664 45.792C134.704 45.872 135.664 45.888 136.032 45.888C136.352 45.888 136.544 45.84 136.72 45.632C137.248 45.056 137.504 42.4 137.728 35.344V35.088ZM133.568 32.496L134.72 32.768C134.128 35.152 133.184 37.504 132.08 39.024C131.872 38.832 131.376 38.496 131.088 38.336C132.176 36.928 133.056 34.72 133.568 32.496ZM132.832 39.248L133.76 38.704C134.672 39.84 135.776 41.392 136.288 42.336L135.264 42.976C134.784 42 133.712 40.416 132.832 39.248ZM147.68 32.704H148.912V41.664H147.68V32.704ZM153.472 32.704H154.72V41.664H153.472V32.704ZM143.968 40.912H158.496V42.08H143.968V40.912ZM144.608 35.952H157.92V37.104H144.608V35.952ZM152.592 43.6L153.632 42.992C155.12 44.048 157.12 45.584 158.144 46.544L157.008 47.28C156.048 46.32 154.112 44.736 152.592 43.6ZM148.448 43.008L149.696 43.488C148.56 44.896 146.736 46.368 145.12 47.296C144.88 47.04 144.464 46.672 144.176 46.448C145.76 45.6 147.552 44.208 148.448 43.008ZM163.264 43.152H177.552V44.208H163.264V43.152ZM169.728 32.56H170.976V34.592H169.728V32.56ZM164.768 40.24H174.864V41.216H164.768V40.24ZM169.744 42.208H170.992V46.064C170.992 46.736 170.8 47.024 170.24 47.184C169.68 47.328 168.752 47.328 167.312 47.328C167.248 47.024 167.056 46.624 166.896 46.336C167.984 46.368 169.088 46.352 169.36 46.352C169.648 46.336 169.744 46.272 169.744 46.032V42.208ZM174.592 40.24H174.912L175.184 40.192L175.984 40.848C174.544 41.744 172.464 42.544 170.576 43.008C170.432 42.8 170.144 42.48 169.968 42.32C171.632 41.904 173.584 41.152 174.592 40.48V40.24ZM166.624 36.928V38.368H174.192V36.928H166.624ZM165.44 36.032H175.44V39.264H165.44V36.032ZM163.408 33.968H177.344V35.008H163.408V33.968ZM184.432 34.704H196.656V35.856H184.432V34.704ZM183.872 34.704H185.072V39.072C185.072 41.504 184.816 45.04 183.168 47.392C182.976 47.152 182.48 46.736 182.208 46.592C183.728 44.4 183.872 41.328 183.872 39.056V34.704ZM189.424 32.576H190.656V35.36H189.424V32.576ZM201.76 38.496H215.872V39.632H201.76V38.496ZM204.352 34.88H214.688V35.984H204.352V34.88ZM204.4 45.408H213.36V46.528H204.4V45.408ZM208.512 32.56H209.776V39.152H208.512V32.56ZM203.744 41.216H214V47.408H212.752V42.336H204.96V47.424H203.744V41.216ZM204.768 32.704L205.952 32.992C205.264 34.96 204.16 36.88 203.04 38.144C202.8 37.968 202.256 37.648 201.952 37.488C203.136 36.336 204.144 34.512 204.768 32.704ZM226.288 42.896H235.312V43.952H226.288V42.896ZM231.68 40.656H232.816V47.264H231.68V40.656ZM230.112 32.512L231.472 32.784C231.072 33.504 230.608 34.32 230.256 34.832L229.28 34.56C229.584 33.968 229.936 33.12 230.112 32.512ZM230.384 34.704H231.424V37.312C231.424 39.232 230.912 41.392 227.68 42.784C227.504 42.576 227.12 42.256 226.88 42.096C229.936 40.8 230.384 38.896 230.384 37.28V34.704ZM222.128 36.96H226.592V38.016H222.128V36.96ZM224.224 32.576H225.28V37.6H224.224V32.576ZM222.192 40.368H225.776V47.28H224.704V41.408H222.192V40.368ZM221.616 32.896H222.672V39.024C222.672 41.584 222.496 44.896 221.584 47.312C221.344 47.184 220.864 47.008 220.544 46.912C221.472 44.608 221.616 41.376 221.616 39.024V32.896ZM228.064 37.632V39.328H233.744V37.632H228.064ZM228.064 35.056V36.72H233.744V35.056H228.064ZM226.976 34.096H234.864V40.272H226.976V34.096Z" fill="#E0E0E0"/>
</svg>
