<svg width="314" height="43" viewBox="0 0 314 43" fill="none" xmlns="http://www.w3.org/2000/svg">
<line x1="105" y1="8.5" y2="8.5" stroke="url(#paint0_linear_2052_1742)"/>
<path d="M117.8 7.752H132.2V9.96H117.8V7.752ZM145.736 16.632C145.064 15.1707 144.477 13.2613 143.976 10.904H142.616C142.381 12.056 142.12 13.1013 141.832 14.04C141.555 14.9787 141.224 15.8427 140.84 16.632H138.6C139.443 14.7653 140.088 12.856 140.536 10.904H138.632V8.856H141.88V5.544H139.272V3.496H141.88V2.04H143.96V3.496H147.736V8.856H148.44V10.904H146.056C146.515 12.8773 147.155 14.7867 147.976 16.632H145.736ZM133.688 13.112L135.32 12.84V7.416H133.784V5.272H135.32V2.168H137.448V5.272H138.984V7.416H137.448V12.488L139 12.232V14.376L133.688 15.256V13.112ZM145.752 8.856V5.544H143.896V8.856H145.752ZM149.56 16.6C150.008 15.4693 150.323 14.3067 150.504 13.112C150.685 11.9173 150.776 10.616 150.776 9.208V3.672H156.28V1.976H158.392V3.672H164.2V5.784H152.888V9.208C152.888 10.5947 152.808 11.88 152.648 13.064C152.499 14.248 152.237 15.4267 151.864 16.6H149.56ZM179.032 10.296V16.44H166.968V10.296H179.032ZM165.656 7.288H172.136L172.12 5.208H168.792C168.643 5.688 168.44 6.20533 168.184 6.76H165.832C166.621 5.224 167.101 3.704 167.272 2.2H169.368C169.325 2.66933 169.288 3.016 169.256 3.24H172.12V2.04H174.2V3.24H179.512V5.208H174.2V7.288H180.344V9.256H165.656V7.288ZM176.952 14.456V12.28H169.048V14.456H176.952ZM190.52 2.92L190.792 2.04H192.808L192.552 2.92H195.912V10.472H191.56L190.792 12.264H188.712L189.496 10.472H188.104V2.92H190.52ZM181.576 16.6C181.885 15.5227 182.093 14.4667 182.2 13.432C182.317 12.3973 182.376 11.1973 182.376 9.832V2.44H184.28V5.928H185.192V2.2H187.016V5.928H187.848V7.976H184.28V9.448H187.4V16.6H185.528V11.496H184.248C184.184 13.2987 183.976 15 183.624 16.6H181.576ZM187.8 12.584H192.024V11.08H194.056V12.584H196.296V14.504H194.056V16.6H192.024V14.504H187.8V12.584ZM191.144 8.776V7.464H189.944V8.776H191.144ZM191.144 5.928V4.616H189.944V5.928H191.144ZM194.072 8.776V7.464H192.856V8.776H194.072ZM194.072 5.928V4.616H192.856V5.928H194.072Z" fill="#BCBCBC"/>
<line y1="-0.5" x2="105" y2="-0.5" transform="matrix(1 0 0 -1 209 8)" stroke="url(#paint1_linear_2052_1742)"/>
<path d="M56.408 33.304H65.704V34.424H56.408V33.304ZM56.408 36.776H65.704V37.896H56.408V36.776ZM56.408 40.28H65.704V41.4H56.408V40.28ZM55.592 29.752H66.632V42.216H65.384V30.904H56.808V42.296H55.592V29.752ZM60.28 27.544L61.672 27.72C61.32 28.68 60.904 29.72 60.552 30.408L59.48 30.2C59.768 29.448 60.12 28.328 60.28 27.544ZM78.952 40.488H85.608V41.592H78.952V40.488ZM78.376 35.848H86.2V42.248H84.984V36.968H79.544V42.312H78.376V35.848ZM77.016 33.208C79.288 33.128 82.888 32.952 86.28 32.776L86.264 33.88C82.968 34.088 79.496 34.28 77.16 34.408L77.016 33.208ZM83.256 30.536L84.296 30.008C85.608 31.416 87.016 33.336 87.656 34.6L86.552 35.224C85.928 33.944 84.52 31.96 83.256 30.536ZM80.76 27.544L82.12 27.88C81.352 29.864 80.296 32.328 79.432 33.88L78.36 33.544C79.208 31.944 80.232 29.384 80.76 27.544ZM73.688 28.568L74.344 27.672C75.416 28.072 76.76 28.792 77.416 29.352L76.712 30.36C76.072 29.784 74.776 29.032 73.688 28.568ZM72.808 32.936L73.464 32.008C74.536 32.36 75.912 33 76.6 33.512L75.928 34.552C75.256 34.024 73.912 33.336 72.808 32.936ZM73.336 41.256C74.184 40.04 75.432 37.928 76.36 36.104L77.24 36.888C76.408 38.584 75.304 40.584 74.36 42.072L73.336 41.256ZM92.152 31.576H106.68V32.744H92.152V31.576ZM95.176 39.944H106.136V41.096H95.176V39.944ZM99.288 36.088H103.512V37.224H99.288V36.088ZM94.552 27.992H95.784V42.296H94.552V27.992ZM98.76 27.656H99.976V38.008H98.76V27.656ZM102.984 27.832H104.184V37.928H102.984V27.832ZM114.296 31.768V33.512H122.872V31.768H114.296ZM114.296 29.096V30.808H122.872V29.096H114.296ZM113.096 28.088H124.104V34.504H113.096V28.088ZM120.36 33.848C121.48 35.4 123.736 36.696 125.976 37.288C125.704 37.528 125.352 37.992 125.176 38.312C122.888 37.576 120.6 36.056 119.336 34.232L120.36 33.848ZM116.904 33.848L117.944 34.28C116.664 36.056 114.312 37.592 112.12 38.376C111.928 38.072 111.576 37.624 111.304 37.384C113.464 36.76 115.752 35.384 116.904 33.848ZM115.576 36.664H116.792V37.656C116.792 39.192 116.408 41.128 113.304 42.376C113.128 42.072 112.744 41.656 112.472 41.416C115.288 40.36 115.576 38.808 115.576 37.624V36.664ZM117.96 28.616H119.176V34.056H117.96V28.616ZM120.664 36.664H121.896V42.248H120.664V36.664ZM131.336 30.424H144.232V37.96H142.984V31.608H132.536V38.04H131.336V30.424ZM131.976 35.864H143.704V37.032H131.976V35.864ZM137.128 27.56H138.376V42.264H137.128V27.56ZM151.096 30.136H155.96V40.6H151.096V39.512H154.84V31.208H151.096V30.136ZM150.376 30.136H151.496V41.88H150.376V30.136ZM151.016 34.584H155.432V35.656H151.016V34.584ZM152.824 27.528L154.12 27.768C153.8 28.76 153.4 29.864 153.08 30.584L152.12 30.344C152.392 29.576 152.696 28.36 152.824 27.528ZM158.232 30.088H163.144V31.208H158.232V30.088ZM162.728 30.088H163.848C163.848 30.088 163.848 30.536 163.848 30.712C163.592 38.056 163.368 40.536 162.728 41.32C162.376 41.784 162.008 41.928 161.448 41.976C160.904 42.04 159.96 42.008 159.064 41.96C159.032 41.608 158.888 41.112 158.664 40.792C159.704 40.872 160.664 40.888 161.032 40.888C161.352 40.888 161.544 40.84 161.72 40.632C162.248 40.056 162.504 37.4 162.728 30.344V30.088ZM158.568 27.496L159.72 27.768C159.128 30.152 158.184 32.504 157.08 34.024C156.872 33.832 156.376 33.496 156.088 33.336C157.176 31.928 158.056 29.72 158.568 27.496ZM157.832 34.248L158.76 33.704C159.672 34.84 160.776 36.392 161.288 37.336L160.264 37.976C159.784 37 158.712 35.416 157.832 34.248ZM172.68 27.704H173.912V36.664H172.68V27.704ZM178.472 27.704H179.72V36.664H178.472V27.704ZM168.968 35.912H183.496V37.08H168.968V35.912ZM169.608 30.952H182.92V32.104H169.608V30.952ZM177.592 38.6L178.632 37.992C180.12 39.048 182.12 40.584 183.144 41.544L182.008 42.28C181.048 41.32 179.112 39.736 177.592 38.6ZM173.448 38.008L174.696 38.488C173.56 39.896 171.736 41.368 170.12 42.296C169.88 42.04 169.464 41.672 169.176 41.448C170.76 40.6 172.552 39.208 173.448 38.008ZM188.264 38.152H202.552V39.208H188.264V38.152ZM194.728 27.56H195.976V29.592H194.728V27.56ZM189.768 35.24H199.864V36.216H189.768V35.24ZM194.744 37.208H195.992V41.064C195.992 41.736 195.8 42.024 195.24 42.184C194.68 42.328 193.752 42.328 192.312 42.328C192.248 42.024 192.056 41.624 191.896 41.336C192.984 41.368 194.088 41.352 194.36 41.352C194.648 41.336 194.744 41.272 194.744 41.032V37.208ZM199.592 35.24H199.912L200.184 35.192L200.984 35.848C199.544 36.744 197.464 37.544 195.576 38.008C195.432 37.8 195.144 37.48 194.968 37.32C196.632 36.904 198.584 36.152 199.592 35.48V35.24ZM191.624 31.928V33.368H199.192V31.928H191.624ZM190.44 31.032H200.44V34.264H190.44V31.032ZM188.408 28.968H202.344V30.008H188.408V28.968ZM209.432 29.704H221.656V30.856H209.432V29.704ZM208.872 29.704H210.072V34.072C210.072 36.504 209.816 40.04 208.168 42.392C207.976 42.152 207.48 41.736 207.208 41.592C208.728 39.4 208.872 36.328 208.872 34.056V29.704ZM214.424 27.576H215.656V30.36H214.424V27.576ZM226.76 33.496H240.872V34.632H226.76V33.496ZM229.352 29.88H239.688V30.984H229.352V29.88ZM229.4 40.408H238.36V41.528H229.4V40.408ZM233.512 27.56H234.776V34.152H233.512V27.56ZM228.744 36.216H239V42.408H237.752V37.336H229.96V42.424H228.744V36.216ZM229.768 27.704L230.952 27.992C230.264 29.96 229.16 31.88 228.04 33.144C227.8 32.968 227.256 32.648 226.952 32.488C228.136 31.336 229.144 29.512 229.768 27.704ZM251.288 37.896H260.312V38.952H251.288V37.896ZM256.68 35.656H257.816V42.264H256.68V35.656ZM255.112 27.512L256.472 27.784C256.072 28.504 255.608 29.32 255.256 29.832L254.28 29.56C254.584 28.968 254.936 28.12 255.112 27.512ZM255.384 29.704H256.424V32.312C256.424 34.232 255.912 36.392 252.68 37.784C252.504 37.576 252.12 37.256 251.88 37.096C254.936 35.8 255.384 33.896 255.384 32.28V29.704ZM247.128 31.96H251.592V33.016H247.128V31.96ZM249.224 27.576H250.28V32.6H249.224V27.576ZM247.192 35.368H250.776V42.28H249.704V36.408H247.192V35.368ZM246.616 27.896H247.672V34.024C247.672 36.584 247.496 39.896 246.584 42.312C246.344 42.184 245.864 42.008 245.544 41.912C246.472 39.608 246.616 36.376 246.616 34.024V27.896ZM253.064 32.632V34.328H258.744V32.632H253.064ZM253.064 30.056V31.72H258.744V30.056H253.064ZM251.976 29.096H259.864V35.272H251.976V29.096Z" fill="#D2D2D2"/>
<defs>
<linearGradient id="paint0_linear_2052_1742" x1="0" y1="7.5" x2="105" y2="7.5" gradientUnits="userSpaceOnUse">
<stop stop-color="#F8F8F8" stop-opacity="0"/>
<stop offset="1" stop-color="#D3D3D3"/>
</linearGradient>
<linearGradient id="paint1_linear_2052_1742" x1="105" y1="0.5" x2="0" y2="0.5" gradientUnits="userSpaceOnUse">
<stop stop-color="#F8F8F8" stop-opacity="0"/>
<stop offset="1" stop-color="#D3D3D3"/>
</linearGradient>
</defs>
</svg>
