<svg width="825" height="91" viewBox="0 0 825 91" fill="none" xmlns="http://www.w3.org/2000/svg">
<path opacity="0.2" d="M0 11C0 7.68629 2.68629 5 6 5L259.639 5C262.693 5 265.259 7.29289 265.601 10.3269L271.247 60.3269C271.648 63.8846 268.865 67 265.284 67H37.5H24.5H6C2.68629 67 0 64.3137 0 61V11Z" fill="white" fill-opacity="0.8"/>
<path opacity="0.2" d="M272.996 11.8619C272.471 8.24311 275.277 5 278.934 5L537.23 5C540.83 5 543.619 8.14717 543.187 11.7206L537.139 61.7206C536.774 64.7336 534.217 67 531.182 67H472.625H440.688H424.719H392.781H376.812H344.875H286.192C283.211 67 280.682 64.8118 280.254 61.8619L272.996 11.8619Z" fill="white" fill-opacity="0.8"/>
<g filter="url(#filter0_d_278_3130)">
<path d="M550.861 10.2794C551.226 7.26638 553.783 5 556.818 5L810 5C813.314 5 816 7.68629 816 11V61C816 64.3137 813.314 67 810 67H799H790.5L782 78L773.5 67H765H748H680H550.77C547.17 67 544.381 63.8528 544.813 60.2794L550.861 10.2794Z" fill="white"/>
</g>
<defs>
<filter id="filter0_d_278_3130" x="535.866" y="0.1" width="289.034" height="90.8" filterUnits="userSpaceOnUse" color-interpolation-filters="sRGB">
<feFlood flood-opacity="0" result="BackgroundImageFix"/>
<feColorMatrix in="SourceAlpha" type="matrix" values="0 0 0 0 0 0 0 0 0 0 0 0 0 0 0 0 0 0 127 0" result="hardAlpha"/>
<feOffset dy="4"/>
<feGaussianBlur stdDeviation="4.45"/>
<feComposite in2="hardAlpha" operator="out"/>
<feColorMatrix type="matrix" values="0 0 0 0 0 0 0 0 0 0 0 0 0 0 0 0 0 0 0.09 0"/>
<feBlend mode="normal" in2="BackgroundImageFix" result="effect1_dropShadow_278_3130"/>
<feBlend mode="normal" in="SourceGraphic" in2="effect1_dropShadow_278_3130" result="shape"/>
</filter>
</defs>
</svg>
