<svg width="825" height="89" viewBox="0 0 825 89" fill="none" xmlns="http://www.w3.org/2000/svg">
<g filter="url(#filter0_d_794_252)">
<path d="M9 11C9 7.68629 11.6863 5 15 5L268.639 5C271.693 5 274.259 7.29289 274.601 10.3269L280.247 60.3269C280.648 63.8846 277.865 67 274.284 67H46.5L39.5 76L33.5 67.5L14.8776 67.12C11.6123 67.0533 9 64.3872 9 61.1212V11Z" fill="white"/>
</g>
<path opacity="0.2" d="M281.996 11.8619C281.471 8.24311 284.277 5 287.934 5L546.23 5C549.83 5 552.619 8.14717 552.187 11.7206L546.139 61.7206C545.774 64.7336 543.217 67 540.182 67H295.192C292.211 67 289.682 64.8118 289.254 61.8619L281.996 11.8619Z" fill="white" fill-opacity="0.8"/>
<path opacity="0.2" d="M559.861 10.2794C560.226 7.26638 562.783 5 565.818 5L819 5C822.314 5 825 7.68629 825 11V61C825 64.3137 822.314 67 819 67H559.77C556.17 67 553.381 63.8528 553.813 60.2794L559.861 10.2794Z" fill="white" fill-opacity="0.8"/>
<defs>
<filter id="filter0_d_794_252" x="0.1" y="0.1" width="289.089" height="88.8" filterUnits="userSpaceOnUse" color-interpolation-filters="sRGB">
<feFlood flood-opacity="0" result="BackgroundImageFix"/>
<feColorMatrix in="SourceAlpha" type="matrix" values="0 0 0 0 0 0 0 0 0 0 0 0 0 0 0 0 0 0 127 0" result="hardAlpha"/>
<feOffset dy="4"/>
<feGaussianBlur stdDeviation="4.45"/>
<feComposite in2="hardAlpha" operator="out"/>
<feColorMatrix type="matrix" values="0 0 0 0 0 0 0 0 0 0 0 0 0 0 0 0 0 0 0.09 0"/>
<feBlend mode="normal" in2="BackgroundImageFix" result="effect1_dropShadow_794_252"/>
<feBlend mode="normal" in="SourceGraphic" in2="effect1_dropShadow_794_252" result="shape"/>
</filter>
</defs>
</svg>
