<svg viewBox="0 0 358 89" fill="none" xmlns="http://www.w3.org/2000/svg">
<path opacity="0.2" d="M0 6C0 2.68629 2.68629 0 6 0H115.182C118.217 0 120.774 2.26639 121.139 5.27945L127.187 55.2795C127.619 58.8528 124.83 62 121.23 62H6C2.68629 62 0 59.3137 0 56V6Z" fill="white" fill-opacity="0.8"/>
<path opacity="0.2" d="M128.813 6.72055C128.381 3.14717 131.17 0 134.77 0H262.23C265.83 0 268.619 3.14717 268.187 6.72055L262.139 56.7206C261.774 59.7336 259.217 62 256.182 62H230H207.5H188H167H140.818C137.783 62 135.226 59.7336 134.861 56.7206L128.813 6.72055Z" fill="white" fill-opacity="0.8"/>
<path d="M276.861 5.27944C277.226 2.26638 279.783 0 282.818 0H343C346.314 0 349 2.68629 349 6V56C349 59.3137 346.314 62 343 62H329.25L319.375 72.5L309.5 62H276.77C273.17 62 270.381 58.8528 270.813 55.2794L276.861 5.27944Z" fill="white"/>
</svg>
