<svg viewBox="0 0 358 89" fill="none" xmlns="http://www.w3.org/2000/svg">
<g filter="url(#filter0_d_1029_276)">
<path d="M9 11C9 7.68629 11.6863 5 15 5H124.182C127.217 5 129.774 7.26639 130.139 10.2794L136.187 60.2795C136.619 63.8528 133.83 67 130.23 67H46.5L39.5 76L33.5 67.5L14.8776 67.1199C11.6123 67.0533 9 64.3872 9 61.1212V11Z" fill="white"/>
</g>
<path opacity="0.2" d="M137.813 11.7205C137.381 8.14717 140.17 5 143.77 5H271.23C274.83 5 277.619 8.14717 277.187 11.7206L271.139 61.7206C270.774 64.7336 268.217 67 265.182 67H149.818C146.783 67 144.226 64.7336 143.861 61.7206L137.813 11.7205Z" fill="white" fill-opacity="0.8"/>
<path opacity="0.2" d="M285.861 10.2794C286.226 7.26638 288.783 5 291.818 5H352C355.314 5 358 7.68629 358 11V61C358 64.3137 355.314 67 352 67H285.77C282.17 67 279.381 63.8528 279.813 60.2794L285.861 10.2794Z" fill="white" fill-opacity="0.8"/>
<defs>
<filter id="filter0_d_1029_276" x="0.1" y="0.1" width="145.031" height="88.8" filterUnits="userSpaceOnUse" color-interpolation-filters="sRGB">
<feFlood flood-opacity="0" result="BackgroundImageFix"/>
<feColorMatrix in="SourceAlpha" type="matrix" values="0 0 0 0 0 0 0 0 0 0 0 0 0 0 0 0 0 0 127 0" result="hardAlpha"/>
<feOffset dy="4"/>
<feGaussianBlur stdDeviation="4.45"/>
<feComposite in2="hardAlpha" operator="out"/>
<feColorMatrix type="matrix" values="0 0 0 0 0 0 0 0 0 0 0 0 0 0 0 0 0 0 0.09 0"/>
<feBlend mode="normal" in2="BackgroundImageFix" result="effect1_dropShadow_1029_276"/>
<feBlend mode="normal" in="SourceGraphic" in2="effect1_dropShadow_1029_276" result="shape"/>
</filter>
</defs>
</svg>
