<svg width="24" height="24" viewBox="0 0 24 24" fill="none" xmlns="http://www.w3.org/2000/svg">
<g clip-path="url(#clip0_1110_834)">
<path d="M11.9997 1.3335C9.89001 1.3335 7.82772 1.95909 6.0736 3.13115C4.31947 4.30322 2.9523 5.96913 2.14496 7.91821C1.33763 9.86728 1.12639 12.012 1.53797 14.0811C1.94955 16.1503 2.96545 18.0509 4.45721 19.5426C5.94897 21.0344 7.84959 22.0503 9.91872 22.4619C11.9878 22.8734 14.1326 22.6622 16.0816 21.8549C18.0307 21.0475 19.6966 19.6804 20.8687 17.9262C22.0408 16.1721 22.6663 14.1098 22.6663 12.0002C22.6663 9.17119 21.5425 6.45808 19.5422 4.45769C17.5418 2.4573 14.8287 1.3335 11.9997 1.3335ZM18.9663 8.42016L10.2063 17.1735L5.03301 12.0002C4.8562 11.8234 4.75687 11.5835 4.75687 11.3335C4.75687 11.0834 4.8562 10.8436 5.03301 10.6668C5.20982 10.49 5.44963 10.3907 5.69968 10.3907C5.94973 10.3907 6.18954 10.49 6.36635 10.6668L10.2197 14.5202L17.6463 7.10016C17.7339 7.01261 17.8378 6.94317 17.9522 6.89579C18.0666 6.84841 18.1892 6.82402 18.313 6.82402C18.4368 6.82402 18.5594 6.84841 18.6738 6.89579C18.7882 6.94317 18.8921 7.01261 18.9797 7.10016C19.0672 7.18771 19.1367 7.29165 19.1841 7.40603C19.2314 7.52042 19.2558 7.64302 19.2558 7.76683C19.2558 7.89064 19.2314 8.01324 19.1841 8.12763C19.1367 8.24201 19.0672 8.34595 18.9797 8.4335L18.9663 8.42016Z" fill="#55DBC3"/>
</g>
<defs>
<clipPath id="clip0_1110_834">
<rect width="24" height="24" fill="white"/>
</clipPath>
</defs>
</svg>
